<?xml version="1.0" encoding="utf-8" ?>
<svg xmlns="http://www.w3.org/2000/svg" xmlns:xlink="http://www.w3.org/1999/xlink" viewBox="100 150 1080 1620" preserveAspectRatio="xMidYMid meet">
	<rect fill="white" width="1280" height="1920"/>
	<clipPath id="cl_3">
		<rect x="28.346457" y="28.346457" width="1223.3071" height="1812.9528"/>
	</clipPath>
	<g clip-path="url(#cl_3)">
		<path transform="matrix(166.983 0 0 166.983 -507.391 1152.49)" d="M8.051 2.401L8.62 2.401L8.62 2.659L3.498 2.659L3.498 0.627L3.748 0.627L3.748 2.409L7.931 2.409L7.931 0.823L8.051 0.823L8.051 2.401M8.051 -3.105L8.051 -1.298L7.931 -1.298L7.931 -3.109L3.758 -3.109L3.758 -2.993L3.498 -2.993L3.498 -3.359L7.801 -3.359L7.801 -5.266L10.191 -5.266L10.191 2.659L9.42 2.659L9.42 2.401L9.934 2.401L9.934 -3.105L9.316 -3.105L9.316 -3.225L9.941 -3.225L9.941 -5.016L8.051 -5.016L8.051 -3.225L8.516 -3.225L8.516 -3.105L8.051 -3.105M8.051 0.023L7.931 0.023L7.931 -0.287L3.748 -0.287L3.748 -0.172L3.498 -0.172L3.498 -2.193L3.758 -2.193L3.758 -0.407L7.931 -0.407L7.931 -0.498L8.051 -0.498L8.051 0.023"/>
		<path fill="#000019" fill-opacity="0.06666667" transform="matrix(166.983 0 0 166.983 -507.391 1152.49)" d="M9.941 -3.225L9.316 -3.225L9.316 -3.105L9.934 -3.105L9.934 2.401L9.42 2.401L9.42 2.526L8.62 2.526L8.62 2.401L8.051 2.401L8.051 0.823L7.931 0.823L7.931 2.409L3.748 2.409L3.748 0.627L3.623 0.627L3.623 -0.172L3.748 -0.172L3.748 -0.287L7.931 -0.287L7.931 0.023L8.051 0.023L8.051 -0.498L7.931 -0.498L7.931 -0.407L3.758 -0.407L3.758 -2.193L3.633 -2.193L3.633 -2.993L3.758 -2.993L3.758 -3.109L7.931 -3.109L7.931 -1.298L8.051 -1.298L8.051 -3.105L8.516 -3.105L8.516 -3.225L8.051 -3.225L8.051 -5.016L9.941 -5.016L9.941 -3.225"/>
		<path fill="white" transform="matrix(166.983 0 0 166.983 289.087 1104.5)" d="M0.00496183 0.00493827C0.434987 0.00493827 0.865013 0.00493827 1.29504 0.00493827C1.29504 0.268313 1.29504 0.531687 1.29504 0.795062C0.865013 0.795062 0.434987 0.795062 0.00496183 0.795062C0.00496183 0.531687 0.00496183 0.268313 0.00496183 0.00493827L0.00496183 0.00493827Z"/>
		<path fill="none" stroke="black" stroke-width="0.0039924243" stroke-miterlimit="4" transform="matrix(166.983 0 0 166.983 289.087 1104.5)" d="M0.00496183 0.00493827C0.434987 0.00493827 0.865013 0.00493827 1.29504 0.00493827C1.29504 0.268313 1.29504 0.531687 1.29504 0.795062C0.865013 0.795062 0.434987 0.795062 0.00496183 0.795062C0.00496183 0.531687 0.00496183 0.268313 0.00496183 0.00493827L0.00496183 0.00493827Z"/>
		<path fill="white" transform="matrix(0 166.983 -166.983 0 817.039 1392.89)" d="M0.00112349 0.0499138C0.323708 0.0499138 0.646292 0.0499138 0.968877 0.0499138C0.968877 0.669565 0.968877 1.28922 0.968877 1.90887C0.646292 1.90887 0.323708 1.90887 0.00112349 1.90887C0.00112349 1.28922 0.00112349 0.669565 0.00112349 0.0499138L0.00112349 0.0499138Z"/>
		<path fill="none" stroke="black" stroke-width="0.0039924243" stroke-miterlimit="4" transform="matrix(0 166.983 -166.983 0 817.039 1392.89)" d="M0.00112349 0.0499138C0.323708 0.0499138 0.646292 0.0499138 0.968877 0.0499138C0.968877 0.669565 0.968877 1.28922 0.968877 1.90887C0.646292 1.90887 0.323708 1.90887 0.00112349 1.90887C0.00112349 1.28922 0.00112349 0.669565 0.00112349 0.0499138L0.00112349 0.0499138Z"/>
		<path fill="white" transform="matrix(0 166.983 -166.983 0 817.039 1392.89)" d="M0.270155 0.0987173C0.413385 0.0987173 0.556615 0.0987173 0.699845 0.0987173C0.726563 0.0987173 0.748223 0.120557 0.748223 0.147498C0.748223 0.234041 0.748223 0.320584 0.748223 0.407127C0.748223 0.434068 0.726563 0.455908 0.699845 0.455908C0.556615 0.455908 0.413385 0.455908 0.270155 0.455908C0.243437 0.455908 0.221777 0.434068 0.221777 0.407127C0.221777 0.320584 0.221777 0.234041 0.221777 0.147498C0.221777 0.120557 0.243437 0.0987173 0.270155 0.0987173C0.270155 0.0987173 0.270155 0.0987173 0.270155 0.0987173L0.270155 0.0987173Z"/>
		<path fill="none" stroke="black" stroke-width="0.0039924243" stroke-miterlimit="4" transform="matrix(0 166.983 -166.983 0 817.039 1392.89)" d="M0.270155 0.0987173C0.413385 0.0987173 0.556615 0.0987173 0.699845 0.0987173C0.726563 0.0987173 0.748223 0.120557 0.748223 0.147498C0.748223 0.234041 0.748223 0.320584 0.748223 0.407127C0.748223 0.434068 0.726563 0.455908 0.699845 0.455908C0.556615 0.455908 0.413385 0.455908 0.270155 0.455908C0.243437 0.455908 0.221777 0.434068 0.221777 0.407127C0.221777 0.320584 0.221777 0.234041 0.221777 0.147498C0.221777 0.120557 0.243437 0.0987173 0.270155 0.0987173C0.270155 0.0987173 0.270155 0.0987173 0.270155 0.0987173L0.270155 0.0987173Z"/>
		<path fill="white" transform="matrix(0 166.983 -166.983 0 817.039 1392.89)" d="M0.00112349 0.00113286C0.323708 0.00113286 0.646292 0.00113286 0.968877 0.00113286C0.968877 0.0173932 0.968877 0.0336535 0.968877 0.0499138C0.646292 0.0499138 0.323708 0.0499138 0.00112349 0.0499138C0.00112349 0.0336535 0.00112349 0.0173932 0.00112349 0.00113286L0.00112349 0.00113286Z"/>
		<path fill="none" stroke="black" stroke-width="0.0039924243" stroke-miterlimit="4" transform="matrix(0 166.983 -166.983 0 817.039 1392.89)" d="M0.00112349 0.00113286C0.323708 0.00113286 0.646292 0.00113286 0.968877 0.00113286C0.968877 0.0173932 0.968877 0.0336535 0.968877 0.0499138C0.646292 0.0499138 0.323708 0.0499138 0.00112349 0.0499138C0.00112349 0.0336535 0.00112349 0.0173932 0.00112349 0.00113286L0.00112349 0.00113286Z"/>
		<path fill="none" stroke="black" stroke-width="0.0039924243" stroke-miterlimit="4" transform="matrix(0 166.983 -166.983 0 817.039 1392.89)" d="M0.00112349 0.586776C0.215965 0.586776 0.430807 0.586776 0.645648 0.586776"/>
		<path fill="none" stroke="black" stroke-width="0.0039924243" stroke-miterlimit="4" transform="matrix(0 166.983 -166.983 0 817.039 1392.89)" d="M0.645648 0.586776C0.645648 0.667926 0.645648 0.749076 0.645648 0.830227"/>
		<path fill="none" stroke="black" stroke-width="0.0039924243" stroke-miterlimit="4" transform="matrix(0 166.983 -166.983 0 817.039 1392.89)" d="M0.645648 0.830227C0.753391 0.830227 0.861134 0.830227 0.968877 0.830227"/>
		<path fill="white" transform="matrix(0 166.983 -166.983 0 817.039 1392.89)" d="M0.968877 0.830227C0.861134 0.749076 0.753391 0.667926 0.645648 0.586776"/>
		<path fill="none" stroke="black" stroke-width="0.0039924243" stroke-miterlimit="4" transform="matrix(0 166.983 -166.983 0 817.039 1392.89)" d="M0.968877 0.830227C0.861134 0.749076 0.753391 0.667926 0.645648 0.586776"/>
		<path fill="white" transform="matrix(-166.983 0 0 -166.983 456.546 1351.63)" d="M0.627374 0.267861C0.643273 0.267861 0.659173 0.267861 0.675072 0.267861C0.675072 0.289969 0.675072 0.312077 0.675072 0.334186C0.659173 0.334186 0.643273 0.334186 0.627374 0.334186C0.627374 0.312077 0.627374 0.289969 0.627374 0.267861L0.627374 0.267861Z"/>
		<path fill="none" stroke="black" stroke-width="0.0039924243" stroke-miterlimit="4" transform="matrix(-166.983 0 0 -166.983 456.546 1351.63)" d="M0.627374 0.267861C0.643273 0.267861 0.659173 0.267861 0.675072 0.267861C0.675072 0.289969 0.675072 0.312077 0.675072 0.334186C0.659173 0.334186 0.643273 0.334186 0.627374 0.334186C0.627374 0.312077 0.627374 0.289969 0.627374 0.267861L0.627374 0.267861Z"/>
		<path fill="white" transform="matrix(-166.983 0 0 -166.983 456.546 1351.63)" d="M0.531287 0.613084C0.545248 0.613084 0.55921 0.613084 0.573171 0.613084C0.573171 0.633747 0.573171 0.65441 0.573171 0.675072C0.55921 0.675072 0.545248 0.675072 0.531287 0.675072C0.531287 0.65441 0.531287 0.633747 0.531287 0.613084L0.531287 0.613084Z"/>
		<path fill="none" stroke="black" stroke-width="0.0039924243" stroke-miterlimit="4" transform="matrix(-166.983 0 0 -166.983 456.546 1351.63)" d="M0.531287 0.613084C0.545248 0.613084 0.55921 0.613084 0.573171 0.613084C0.573171 0.633747 0.573171 0.65441 0.573171 0.675072C0.55921 0.675072 0.545248 0.675072 0.531287 0.675072C0.531287 0.65441 0.531287 0.633747 0.531287 0.613084L0.531287 0.613084Z"/>
		<path fill="white" transform="matrix(-166.983 0 0 -166.983 456.546 1351.63)" d="M0.106829 0.613084C0.12079 0.613084 0.134752 0.613084 0.148713 0.613084C0.148713 0.633747 0.148713 0.65441 0.148713 0.675072C0.134752 0.675072 0.12079 0.675072 0.106829 0.675072C0.106829 0.65441 0.106829 0.633747 0.106829 0.613084L0.106829 0.613084Z"/>
		<path fill="none" stroke="black" stroke-width="0.0039924243" stroke-miterlimit="4" transform="matrix(-166.983 0 0 -166.983 456.546 1351.63)" d="M0.106829 0.613084C0.12079 0.613084 0.134752 0.613084 0.148713 0.613084C0.148713 0.633747 0.148713 0.65441 0.148713 0.675072C0.134752 0.675072 0.12079 0.675072 0.106829 0.675072C0.106829 0.65441 0.106829 0.633747 0.106829 0.613084L0.106829 0.613084Z"/>
		<path fill="white" transform="matrix(-166.983 0 0 -166.983 456.546 1351.63)" d="M0.316151 0.00492754C0.33205 0.00492754 0.34795 0.00492754 0.363849 0.00492754C0.363849 0.0270358 0.363849 0.049144 0.363849 0.0712522C0.34795 0.0712522 0.33205 0.0712522 0.316151 0.0712522C0.316151 0.049144 0.316151 0.0270358 0.316151 0.00492754L0.316151 0.00492754Z"/>
		<path fill="none" stroke="black" stroke-width="0.0039924243" stroke-miterlimit="4" transform="matrix(-166.983 0 0 -166.983 456.546 1351.63)" d="M0.316151 0.00492754C0.33205 0.00492754 0.34795 0.00492754 0.363849 0.00492754C0.363849 0.0270358 0.363849 0.049144 0.363849 0.0712522C0.34795 0.0712522 0.33205 0.0712522 0.316151 0.0712522C0.316151 0.049144 0.316151 0.0270358 0.316151 0.00492754L0.316151 0.00492754Z"/>
		<path fill="white" transform="matrix(-166.983 0 0 -166.983 456.546 1351.63)" d="M0.00492754 0.267861C0.0208271 0.267861 0.0367266 0.267861 0.0526261 0.267861C0.0526261 0.289969 0.0526261 0.312077 0.0526261 0.334186C0.0367266 0.334186 0.0208271 0.334186 0.00492754 0.334186C0.00492754 0.312077 0.00492754 0.289969 0.00492754 0.267861L0.00492754 0.267861Z"/>
		<path fill="none" stroke="black" stroke-width="0.0039924243" stroke-miterlimit="4" transform="matrix(-166.983 0 0 -166.983 456.546 1351.63)" d="M0.00492754 0.267861C0.0208271 0.267861 0.0367266 0.267861 0.0526261 0.267861C0.0526261 0.289969 0.0526261 0.312077 0.0526261 0.334186C0.0367266 0.334186 0.0208271 0.334186 0.00492754 0.334186C0.00492754 0.312077 0.00492754 0.289969 0.00492754 0.267861L0.00492754 0.267861Z"/>
		<path fill="white" transform="matrix(-166.983 0 0 -166.983 456.546 1351.63)" d="M0.483391 0.573664C0.389768 0.598006 0.290133 0.598006 0.19651 0.573664C0.149896 0.562429 0.113432 0.530203 0.10062 0.489009C0.0872174 0.397554 0.0872174 0.304916 0.10062 0.213559C0.101606 0.185275 0.119148 0.159455 0.146939 0.145362C0.205872 0.115797 0.272197 0.0996348 0.339901 0.0981565"/>
		<path fill="none" stroke="black" stroke-width="0.0039924243" stroke-miterlimit="4" transform="matrix(-166.983 0 0 -166.983 456.546 1351.63)" d="M0.483391 0.573664C0.389768 0.598006 0.290133 0.598006 0.19651 0.573664C0.149896 0.562429 0.113432 0.530203 0.10062 0.489009C0.0872174 0.397554 0.0872174 0.304916 0.10062 0.213559C0.101606 0.185275 0.119148 0.159455 0.146939 0.145362C0.205872 0.115797 0.272197 0.0996348 0.339901 0.0981565"/>
		<path fill="white" transform="matrix(-166.983 0 0 -166.983 456.546 1351.63)" d="M0.483391 0.573664C0.530006 0.562429 0.56647 0.530203 0.579281 0.489009C0.592684 0.397554 0.592684 0.304916 0.579281 0.213559C0.578296 0.185275 0.560754 0.159455 0.532962 0.145362C0.474029 0.115797 0.407704 0.0996348 0.34 0.0981565"/>
		<path fill="none" stroke="black" stroke-width="0.0039924243" stroke-miterlimit="4" transform="matrix(-166.983 0 0 -166.983 456.546 1351.63)" d="M0.483391 0.573664C0.530006 0.562429 0.56647 0.530203 0.579281 0.489009C0.592684 0.397554 0.592684 0.304916 0.579281 0.213559C0.578296 0.185275 0.560754 0.159455 0.532962 0.145362C0.474029 0.115797 0.407704 0.0996348 0.34 0.0981565"/>
		<path fill="white" transform="matrix(-166.983 0 0 -166.983 456.546 1351.63)" d="M0.566174 0.174041C0.421304 0.121119 0.258597 0.121119 0.113826 0.174041"/>
		<path fill="none" stroke="black" stroke-width="0.0039924243" stroke-miterlimit="4" transform="matrix(-166.983 0 0 -166.983 456.546 1351.63)" d="M0.566174 0.174041C0.421304 0.121119 0.258597 0.121119 0.113826 0.174041"/>
		<path fill="white" transform="matrix(-166.983 0 0 -166.983 456.546 1351.63)" d="M0.668864 0.264609C0.670933 0.273018 0.673003 0.281428 0.675072 0.289838C0.646131 0.295225 0.61719 0.300613 0.588249 0.306C0.586344 0.297623 0.584439 0.289246 0.582533 0.28087C0.61131 0.275449 0.640087 0.270029 0.668864 0.264609"/>
		<path fill="none" stroke="black" stroke-width="0.0039924243" stroke-miterlimit="4" transform="matrix(-166.983 0 0 -166.983 456.546 1351.63)" d="M0.668864 0.264609C0.670933 0.273018 0.673003 0.281428 0.675072 0.289838C0.646131 0.295225 0.61719 0.300613 0.588249 0.306C0.586344 0.297623 0.584439 0.289246 0.582533 0.28087C0.61131 0.275449 0.640087 0.270029 0.668864 0.264609"/>
		<path fill="white" transform="matrix(-166.983 0 0 -166.983 456.546 1351.63)" d="M0.495612 0.570116C0.513942 0.598236 0.532272 0.626356 0.550603 0.654475C0.558487 0.650632 0.566371 0.646788 0.574255 0.642945C0.555728 0.615384 0.5372 0.587822 0.518673 0.560261C0.510986 0.563546 0.503299 0.566831 0.495612 0.570116"/>
		<path fill="none" stroke="black" stroke-width="0.0039924243" stroke-miterlimit="4" transform="matrix(-166.983 0 0 -166.983 456.546 1351.63)" d="M0.495612 0.570116C0.513942 0.598236 0.532272 0.626356 0.550603 0.654475C0.558487 0.650632 0.566371 0.646788 0.574255 0.642945C0.555728 0.615384 0.5372 0.587822 0.518673 0.560261C0.510986 0.563546 0.503299 0.566831 0.495612 0.570116"/>
		<path fill="white" transform="matrix(-166.983 0 0 -166.983 456.546 1351.63)" d="M0.184388 0.570116C0.166058 0.598236 0.147728 0.626356 0.129397 0.654475C0.121513 0.650632 0.113629 0.646788 0.105745 0.642945C0.124272 0.615384 0.1428 0.587822 0.161328 0.560261C0.169014 0.563546 0.176701 0.566831 0.184388 0.570116"/>
		<path fill="none" stroke="black" stroke-width="0.0039924243" stroke-miterlimit="4" transform="matrix(-166.983 0 0 -166.983 456.546 1351.63)" d="M0.184388 0.570116C0.166058 0.598236 0.147728 0.626356 0.129397 0.654475C0.121513 0.650632 0.113629 0.646788 0.105745 0.642945C0.124272 0.615384 0.1428 0.587822 0.161328 0.560261C0.169014 0.563546 0.176701 0.566831 0.184388 0.570116"/>
		<path fill="white" transform="matrix(-166.983 0 0 -166.983 456.546 1351.63)" d="M0.326006 0.0444464C0.335335 0.0444464 0.344665 0.0444464 0.353994 0.0444464C0.353994 0.0623169 0.353994 0.0801874 0.353994 0.098058C0.344665 0.098058 0.335335 0.098058 0.326006 0.098058C0.326006 0.0801874 0.326006 0.0623169 0.326006 0.0444464L0.326006 0.0444464Z"/>
		<path fill="none" stroke="black" stroke-width="0.0039924243" stroke-miterlimit="4" transform="matrix(-166.983 0 0 -166.983 456.546 1351.63)" d="M0.326006 0.0444464C0.335335 0.0444464 0.344665 0.0444464 0.353994 0.0444464C0.353994 0.0623169 0.353994 0.0801874 0.353994 0.098058C0.344665 0.098058 0.335335 0.098058 0.326006 0.098058C0.326006 0.0801874 0.326006 0.0623169 0.326006 0.0444464L0.326006 0.0444464Z"/>
		<path fill="white" transform="matrix(-166.983 0 0 -166.983 456.546 1351.63)" d="M0.0111362 0.264609C0.00906667 0.273018 0.0069971 0.281428 0.00492754 0.289838C0.0338686 0.295225 0.0628097 0.300613 0.0917507 0.306C0.093656 0.297623 0.0955614 0.289246 0.0974667 0.28087C0.0686899 0.275449 0.039913 0.270029 0.0111362 0.264609"/>
		<path fill="none" stroke="black" stroke-width="0.0039924243" stroke-miterlimit="4" transform="matrix(-166.983 0 0 -166.983 456.546 1351.63)" d="M0.0111362 0.264609C0.00906667 0.273018 0.0069971 0.281428 0.00492754 0.289838C0.0338686 0.295225 0.0628097 0.300613 0.0917507 0.306C0.093656 0.297623 0.0955614 0.289246 0.0974667 0.28087C0.0686899 0.275449 0.039913 0.270029 0.0111362 0.264609"/>
		<path fill="white" transform="matrix(166.983 0 0 166.983 368.967 1479.72)" d="M0.0048913 0.0048913C0.15163 0.0048913 0.29837 0.0048913 0.445109 0.0048913C0.445109 0.15163 0.445109 0.29837 0.445109 0.445109C0.29837 0.445109 0.15163 0.445109 0.0048913 0.445109C0.0048913 0.29837 0.0048913 0.15163 0.0048913 0.0048913L0.0048913 0.0048913Z"/>
		<path fill="none" stroke="black" stroke-width="0.0039924243" stroke-miterlimit="4" transform="matrix(166.983 0 0 166.983 368.967 1479.72)" d="M0.0048913 0.0048913C0.15163 0.0048913 0.29837 0.0048913 0.445109 0.0048913C0.445109 0.15163 0.445109 0.29837 0.445109 0.445109C0.29837 0.445109 0.15163 0.445109 0.0048913 0.445109C0.0048913 0.29837 0.0048913 0.15163 0.0048913 0.0048913L0.0048913 0.0048913Z"/>
		<path fill="white" transform="matrix(166.983 0 0 166.983 506.165 1104.5)" d="M0.000503356 0.00050758C0.200168 0.00050758 0.399832 0.00050758 0.599497 0.00050758C0.599497 0.193459 0.599497 0.38641 0.599497 0.579362C0.399832 0.579362 0.200168 0.579362 0.000503356 0.579362C0.000503356 0.38641 0.000503356 0.193459 0.000503356 0.00050758L0.000503356 0.00050758Z"/>
		<path fill="none" stroke="black" stroke-width="0.0039924243" stroke-miterlimit="4" transform="matrix(166.983 0 0 166.983 506.165 1104.5)" d="M0.000503356 0.00050758C0.200168 0.00050758 0.399832 0.00050758 0.599497 0.00050758C0.599497 0.193459 0.599497 0.38641 0.599497 0.579362C0.399832 0.579362 0.200168 0.579362 0.000503356 0.579362C0.000503356 0.38641 0.000503356 0.193459 0.000503356 0.00050758L0.000503356 0.00050758Z"/>
		<path fill="white" transform="matrix(166.983 0 0 166.983 506.165 1104.5)" d="M0.000503356 0.579362C0.200168 0.579362 0.399832 0.579362 0.599497 0.579362C0.599497 0.586072 0.599497 0.592782 0.599497 0.599492C0.399832 0.599492 0.200168 0.599492 0.000503356 0.599492C0.000503356 0.592782 0.000503356 0.586072 0.000503356 0.579362L0.000503356 0.579362Z"/>
		<path fill="none" stroke="black" stroke-width="0.0039924243" stroke-miterlimit="4" transform="matrix(166.983 0 0 166.983 506.165 1104.5)" d="M0.000503356 0.579362C0.200168 0.579362 0.399832 0.579362 0.599497 0.579362C0.599497 0.586072 0.599497 0.592782 0.599497 0.599492C0.399832 0.599492 0.200168 0.599492 0.000503356 0.599492C0.000503356 0.592782 0.000503356 0.586072 0.000503356 0.579362L0.000503356 0.579362Z"/>
		<path fill="white" transform="matrix(-166.983 0 0 -166.983 368.967 1554.87)" d="M1.4975 0.498047C0.999167 0.498047 0.500833 0.498047 0.0025 0.498047C0.0025 0.332682 0.0025 0.167318 0.0025 0.00195312C0.500833 0.00195312 0.999167 0.00195312 1.4975 0.00195312C1.4975 0.167318 1.4975 0.332682 1.4975 0.498047C1.4975 0.498047 1.4975 0.498047 1.4975 0.498047L1.4975 0.498047Z"/>
		<path fill="none" stroke="black" stroke-width="0.0039924243" stroke-miterlimit="4" transform="matrix(-166.983 0 0 -166.983 368.967 1554.87)" d="M1.4975 0.498047C0.999167 0.498047 0.500833 0.498047 0.0025 0.498047C0.0025 0.332682 0.0025 0.167318 0.0025 0.00195312C0.500833 0.00195312 0.999167 0.00195312 1.4975 0.00195312C1.4975 0.167318 1.4975 0.332682 1.4975 0.498047C1.4975 0.498047 1.4975 0.498047 1.4975 0.498047L1.4975 0.498047Z"/>
		<path fill="none" stroke="black" stroke-width="0.0039924243" stroke-miterlimit="4" transform="matrix(-166.983 0 0 -166.983 368.967 1554.87)" d="M0.75 0.498047C0.75 0.486979 0.75 0.475911 0.75 0.464844"/>
		<path fill="none" stroke="black" stroke-width="0.0039924243" stroke-miterlimit="4" transform="matrix(-166.983 0 0 -166.983 368.967 1554.87)" d="M1.4975 0.464844C0.999167 0.464844 0.500833 0.464844 0.0025 0.464844"/>
		<path fill="white" transform="matrix(0 -166.983 -166.983 -0 118.492 1257.28)" d="M0 0C0.266667 0 0.533333 0 0.8 0C0.8 0.04 0.8 0.08 0.8 0.12C0.533333 0.12 0.266667 0.12 0 0.12C0 0.08 0 0.04 0 0C0 0 0 0 0 0L0 0Z"/>
		<path fill="none" stroke="black" stroke-width="0.0039924243" stroke-miterlimit="4" transform="matrix(0 -166.983 -166.983 -0 118.492 1257.28)" d="M0 0C0.266667 0 0.533333 0 0.8 0"/>
		<path fill="none" stroke="black" stroke-width="0.0039924243" stroke-miterlimit="4" transform="matrix(0 -166.983 -166.983 -0 118.492 1257.28)" d="M0.8 0.12C0.533333 0.12 0.266667 0.12 0 0.12"/>
		<path fill="none" stroke="black" stroke-width="0.0039924243" stroke-miterlimit="4" transform="matrix(0 -166.983 -166.983 -0 118.492 1257.28)" d="M0 0.06C0.266667 0.06 0.533333 0.06 0.8 0.06"/>
		<path fill="white" transform="matrix(0 -166.983 -166.983 -0 118.492 1257.28)" d="M0.08 0.12C0.0533333 0.12 0.0266667 0.12 0 0.12C0 0.08 0 0.04 0 0C0.0266667 0 0.0533333 0 0.08 0"/>
		<path fill="none" stroke="black" stroke-width="0.0039924243" stroke-miterlimit="4" transform="matrix(0 -166.983 -166.983 -0 118.492 1257.28)" d="M0.08 0.12C0.0533333 0.12 0.0266667 0.12 0 0.12C0 0.08 0 0.04 0 0C0.0266667 0 0.0533333 0 0.08 0"/>
		<path fill="none" stroke="black" stroke-width="0.015969697" stroke-miterlimit="4" transform="matrix(0 -166.983 -166.983 -0 118.492 1257.28)" d="M0 0.06C0.0266667 0.06 0.0533333 0.06 0.08 0.06"/>
		<path fill="white" transform="matrix(0 -166.983 -166.983 -0 118.492 1137.05)" d="M0 0C0.0266667 0 0.0533333 0 0.08 0C0.08 0.04 0.08 0.08 0.08 0.12C0.0533333 0.12 0.0266667 0.12 0 0.12"/>
		<path fill="none" stroke="black" stroke-width="0.0039924243" stroke-miterlimit="4" transform="matrix(0 -166.983 -166.983 -0 118.492 1137.05)" d="M0 0C0.0266667 0 0.0533333 0 0.08 0C0.08 0.04 0.08 0.08 0.08 0.12C0.0533333 0.12 0.0266667 0.12 0 0.12"/>
		<path fill="none" stroke="black" stroke-width="0.015969697" stroke-miterlimit="4" transform="matrix(0 -166.983 -166.983 -0 118.492 1137.05)" d="M0 0.06C0.0266667 0.06 0.0533333 0.06 0.08 0.06"/>
		<path fill="white" transform="matrix(166.983 0 0 166.983 148.613 633.283)" d="M0.00496183 0.00493827C0.434987 0.00493827 0.865013 0.00493827 1.29504 0.00493827C1.29504 0.268313 1.29504 0.531687 1.29504 0.795062C0.865013 0.795062 0.434987 0.795062 0.00496183 0.795062C0.00496183 0.531687 0.00496183 0.268313 0.00496183 0.00493827L0.00496183 0.00493827Z"/>
		<path fill="none" stroke="black" stroke-width="0.0039924243" stroke-miterlimit="4" transform="matrix(166.983 0 0 166.983 148.613 633.283)" d="M0.00496183 0.00493827C0.434987 0.00493827 0.865013 0.00493827 1.29504 0.00493827C1.29504 0.268313 1.29504 0.531687 1.29504 0.795062C0.865013 0.795062 0.434987 0.795062 0.00496183 0.795062C0.00496183 0.531687 0.00496183 0.268313 0.00496183 0.00493827L0.00496183 0.00493827Z"/>
		<path fill="white" transform="matrix(0 166.983 -166.983 0 817.039 633.281)" d="M0.00112349 0.0499138C0.323708 0.0499138 0.646292 0.0499138 0.968877 0.0499138C0.968877 0.669565 0.968877 1.28922 0.968877 1.90887C0.646292 1.90887 0.323708 1.90887 0.00112349 1.90887C0.00112349 1.28922 0.00112349 0.669565 0.00112349 0.0499138L0.00112349 0.0499138Z"/>
		<path fill="none" stroke="black" stroke-width="0.0039924243" stroke-miterlimit="4" transform="matrix(0 166.983 -166.983 0 817.039 633.281)" d="M0.00112349 0.0499138C0.323708 0.0499138 0.646292 0.0499138 0.968877 0.0499138C0.968877 0.669565 0.968877 1.28922 0.968877 1.90887C0.646292 1.90887 0.323708 1.90887 0.00112349 1.90887C0.00112349 1.28922 0.00112349 0.669565 0.00112349 0.0499138L0.00112349 0.0499138Z"/>
		<path fill="white" transform="matrix(0 166.983 -166.983 0 817.039 633.281)" d="M0.270155 0.0987173C0.413385 0.0987173 0.556615 0.0987173 0.699845 0.0987173C0.726563 0.0987173 0.748223 0.120557 0.748223 0.147498C0.748223 0.234041 0.748223 0.320584 0.748223 0.407127C0.748223 0.434068 0.726563 0.455908 0.699845 0.455908C0.556615 0.455908 0.413385 0.455908 0.270155 0.455908C0.243437 0.455908 0.221777 0.434068 0.221777 0.407127C0.221777 0.320584 0.221777 0.234041 0.221777 0.147498C0.221777 0.120557 0.243437 0.0987173 0.270155 0.0987173C0.270155 0.0987173 0.270155 0.0987173 0.270155 0.0987173L0.270155 0.0987173Z"/>
		<path fill="none" stroke="black" stroke-width="0.0039924243" stroke-miterlimit="4" transform="matrix(0 166.983 -166.983 0 817.039 633.281)" d="M0.270155 0.0987173C0.413385 0.0987173 0.556615 0.0987173 0.699845 0.0987173C0.726563 0.0987173 0.748223 0.120557 0.748223 0.147498C0.748223 0.234041 0.748223 0.320584 0.748223 0.407127C0.748223 0.434068 0.726563 0.455908 0.699845 0.455908C0.556615 0.455908 0.413385 0.455908 0.270155 0.455908C0.243437 0.455908 0.221777 0.434068 0.221777 0.407127C0.221777 0.320584 0.221777 0.234041 0.221777 0.147498C0.221777 0.120557 0.243437 0.0987173 0.270155 0.0987173C0.270155 0.0987173 0.270155 0.0987173 0.270155 0.0987173L0.270155 0.0987173Z"/>
		<path fill="white" transform="matrix(0 166.983 -166.983 0 817.039 633.281)" d="M0.00112349 0.00113286C0.323708 0.00113286 0.646292 0.00113286 0.968877 0.00113286C0.968877 0.0173932 0.968877 0.0336535 0.968877 0.0499138C0.646292 0.0499138 0.323708 0.0499138 0.00112349 0.0499138C0.00112349 0.0336535 0.00112349 0.0173932 0.00112349 0.00113286L0.00112349 0.00113286Z"/>
		<path fill="none" stroke="black" stroke-width="0.0039924243" stroke-miterlimit="4" transform="matrix(0 166.983 -166.983 0 817.039 633.281)" d="M0.00112349 0.00113286C0.323708 0.00113286 0.646292 0.00113286 0.968877 0.00113286C0.968877 0.0173932 0.968877 0.0336535 0.968877 0.0499138C0.646292 0.0499138 0.323708 0.0499138 0.00112349 0.0499138C0.00112349 0.0336535 0.00112349 0.0173932 0.00112349 0.00113286L0.00112349 0.00113286Z"/>
		<path fill="none" stroke="black" stroke-width="0.0039924243" stroke-miterlimit="4" transform="matrix(0 166.983 -166.983 0 817.039 633.281)" d="M0.00112349 0.586776C0.215965 0.586776 0.430807 0.586776 0.645648 0.586776"/>
		<path fill="none" stroke="black" stroke-width="0.0039924243" stroke-miterlimit="4" transform="matrix(0 166.983 -166.983 0 817.039 633.281)" d="M0.645648 0.586776C0.645648 0.667926 0.645648 0.749076 0.645648 0.830227"/>
		<path fill="none" stroke="black" stroke-width="0.0039924243" stroke-miterlimit="4" transform="matrix(0 166.983 -166.983 0 817.039 633.281)" d="M0.645648 0.830227C0.753391 0.830227 0.861134 0.830227 0.968877 0.830227"/>
		<path fill="white" transform="matrix(0 166.983 -166.983 0 817.039 633.281)" d="M0.968877 0.830227C0.861134 0.749076 0.753391 0.667926 0.645648 0.586776"/>
		<path fill="none" stroke="black" stroke-width="0.0039924243" stroke-miterlimit="4" transform="matrix(0 166.983 -166.983 0 817.039 633.281)" d="M0.968877 0.830227C0.861134 0.749076 0.753391 0.667926 0.645648 0.586776"/>
		<path fill="white" transform="matrix(-166.983 0 0 -166.983 316.447 880.416)" d="M0.627374 0.267861C0.643273 0.267861 0.659173 0.267861 0.675072 0.267861C0.675072 0.289969 0.675072 0.312077 0.675072 0.334186C0.659173 0.334186 0.643273 0.334186 0.627374 0.334186C0.627374 0.312077 0.627374 0.289969 0.627374 0.267861L0.627374 0.267861Z"/>
		<path fill="none" stroke="black" stroke-width="0.0039924243" stroke-miterlimit="4" transform="matrix(-166.983 0 0 -166.983 316.447 880.416)" d="M0.627374 0.267861C0.643273 0.267861 0.659173 0.267861 0.675072 0.267861C0.675072 0.289969 0.675072 0.312077 0.675072 0.334186C0.659173 0.334186 0.643273 0.334186 0.627374 0.334186C0.627374 0.312077 0.627374 0.289969 0.627374 0.267861L0.627374 0.267861Z"/>
		<path fill="white" transform="matrix(-166.983 0 0 -166.983 316.447 880.416)" d="M0.531287 0.613084C0.545248 0.613084 0.55921 0.613084 0.573171 0.613084C0.573171 0.633747 0.573171 0.65441 0.573171 0.675072C0.55921 0.675072 0.545248 0.675072 0.531287 0.675072C0.531287 0.65441 0.531287 0.633747 0.531287 0.613084L0.531287 0.613084Z"/>
		<path fill="none" stroke="black" stroke-width="0.0039924243" stroke-miterlimit="4" transform="matrix(-166.983 0 0 -166.983 316.447 880.416)" d="M0.531287 0.613084C0.545248 0.613084 0.55921 0.613084 0.573171 0.613084C0.573171 0.633747 0.573171 0.65441 0.573171 0.675072C0.55921 0.675072 0.545248 0.675072 0.531287 0.675072C0.531287 0.65441 0.531287 0.633747 0.531287 0.613084L0.531287 0.613084Z"/>
		<path fill="white" transform="matrix(-166.983 0 0 -166.983 316.447 880.416)" d="M0.106829 0.613084C0.12079 0.613084 0.134752 0.613084 0.148713 0.613084C0.148713 0.633747 0.148713 0.65441 0.148713 0.675072C0.134752 0.675072 0.12079 0.675072 0.106829 0.675072C0.106829 0.65441 0.106829 0.633747 0.106829 0.613084L0.106829 0.613084Z"/>
		<path fill="none" stroke="black" stroke-width="0.0039924243" stroke-miterlimit="4" transform="matrix(-166.983 0 0 -166.983 316.447 880.416)" d="M0.106829 0.613084C0.12079 0.613084 0.134752 0.613084 0.148713 0.613084C0.148713 0.633747 0.148713 0.65441 0.148713 0.675072C0.134752 0.675072 0.12079 0.675072 0.106829 0.675072C0.106829 0.65441 0.106829 0.633747 0.106829 0.613084L0.106829 0.613084Z"/>
		<path fill="white" transform="matrix(-166.983 0 0 -166.983 316.447 880.416)" d="M0.316151 0.00492754C0.33205 0.00492754 0.34795 0.00492754 0.363849 0.00492754C0.363849 0.0270358 0.363849 0.049144 0.363849 0.0712522C0.34795 0.0712522 0.33205 0.0712522 0.316151 0.0712522C0.316151 0.049144 0.316151 0.0270358 0.316151 0.00492754L0.316151 0.00492754Z"/>
		<path fill="none" stroke="black" stroke-width="0.0039924243" stroke-miterlimit="4" transform="matrix(-166.983 0 0 -166.983 316.447 880.416)" d="M0.316151 0.00492754C0.33205 0.00492754 0.34795 0.00492754 0.363849 0.00492754C0.363849 0.0270358 0.363849 0.049144 0.363849 0.0712522C0.34795 0.0712522 0.33205 0.0712522 0.316151 0.0712522C0.316151 0.049144 0.316151 0.0270358 0.316151 0.00492754L0.316151 0.00492754Z"/>
		<path fill="white" transform="matrix(-166.983 0 0 -166.983 316.447 880.416)" d="M0.00492754 0.267861C0.0208271 0.267861 0.0367266 0.267861 0.0526261 0.267861C0.0526261 0.289969 0.0526261 0.312077 0.0526261 0.334186C0.0367266 0.334186 0.0208271 0.334186 0.00492754 0.334186C0.00492754 0.312077 0.00492754 0.289969 0.00492754 0.267861L0.00492754 0.267861Z"/>
		<path fill="none" stroke="black" stroke-width="0.0039924243" stroke-miterlimit="4" transform="matrix(-166.983 0 0 -166.983 316.447 880.416)" d="M0.00492754 0.267861C0.0208271 0.267861 0.0367266 0.267861 0.0526261 0.267861C0.0526261 0.289969 0.0526261 0.312077 0.0526261 0.334186C0.0367266 0.334186 0.0208271 0.334186 0.00492754 0.334186C0.00492754 0.312077 0.00492754 0.289969 0.00492754 0.267861L0.00492754 0.267861Z"/>
		<path fill="white" transform="matrix(-166.983 0 0 -166.983 316.447 880.416)" d="M0.483391 0.573664C0.389768 0.598006 0.290133 0.598006 0.19651 0.573664C0.149896 0.562429 0.113432 0.530203 0.10062 0.489009C0.0872174 0.397554 0.0872174 0.304916 0.10062 0.213559C0.101606 0.185275 0.119148 0.159455 0.146939 0.145362C0.205872 0.115797 0.272197 0.0996348 0.339901 0.0981565"/>
		<path fill="none" stroke="black" stroke-width="0.0039924243" stroke-miterlimit="4" transform="matrix(-166.983 0 0 -166.983 316.447 880.416)" d="M0.483391 0.573664C0.389768 0.598006 0.290133 0.598006 0.19651 0.573664C0.149896 0.562429 0.113432 0.530203 0.10062 0.489009C0.0872174 0.397554 0.0872174 0.304916 0.10062 0.213559C0.101606 0.185275 0.119148 0.159455 0.146939 0.145362C0.205872 0.115797 0.272197 0.0996348 0.339901 0.0981565"/>
		<path fill="white" transform="matrix(-166.983 0 0 -166.983 316.447 880.416)" d="M0.483391 0.573664C0.530006 0.562429 0.56647 0.530203 0.579281 0.489009C0.592684 0.397554 0.592684 0.304916 0.579281 0.213559C0.578296 0.185275 0.560754 0.159455 0.532962 0.145362C0.474029 0.115797 0.407704 0.0996348 0.34 0.0981565"/>
		<path fill="none" stroke="black" stroke-width="0.0039924243" stroke-miterlimit="4" transform="matrix(-166.983 0 0 -166.983 316.447 880.416)" d="M0.483391 0.573664C0.530006 0.562429 0.56647 0.530203 0.579281 0.489009C0.592684 0.397554 0.592684 0.304916 0.579281 0.213559C0.578296 0.185275 0.560754 0.159455 0.532962 0.145362C0.474029 0.115797 0.407704 0.0996348 0.34 0.0981565"/>
		<path fill="white" transform="matrix(-166.983 0 0 -166.983 316.447 880.416)" d="M0.566174 0.174041C0.421304 0.121119 0.258597 0.121119 0.113826 0.174041"/>
		<path fill="none" stroke="black" stroke-width="0.0039924243" stroke-miterlimit="4" transform="matrix(-166.983 0 0 -166.983 316.447 880.416)" d="M0.566174 0.174041C0.421304 0.121119 0.258597 0.121119 0.113826 0.174041"/>
		<path fill="white" transform="matrix(-166.983 0 0 -166.983 316.447 880.416)" d="M0.668864 0.264609C0.670933 0.273018 0.673003 0.281428 0.675072 0.289838C0.646131 0.295225 0.61719 0.300613 0.588249 0.306C0.586344 0.297623 0.584439 0.289246 0.582533 0.28087C0.61131 0.275449 0.640087 0.270029 0.668864 0.264609"/>
		<path fill="none" stroke="black" stroke-width="0.0039924243" stroke-miterlimit="4" transform="matrix(-166.983 0 0 -166.983 316.447 880.416)" d="M0.668864 0.264609C0.670933 0.273018 0.673003 0.281428 0.675072 0.289838C0.646131 0.295225 0.61719 0.300613 0.588249 0.306C0.586344 0.297623 0.584439 0.289246 0.582533 0.28087C0.61131 0.275449 0.640087 0.270029 0.668864 0.264609"/>
		<path fill="white" transform="matrix(-166.983 0 0 -166.983 316.447 880.416)" d="M0.495612 0.570116C0.513942 0.598236 0.532272 0.626356 0.550603 0.654475C0.558487 0.650632 0.566371 0.646788 0.574255 0.642945C0.555728 0.615384 0.5372 0.587822 0.518673 0.560261C0.510986 0.563546 0.503299 0.566831 0.495612 0.570116"/>
		<path fill="none" stroke="black" stroke-width="0.0039924243" stroke-miterlimit="4" transform="matrix(-166.983 0 0 -166.983 316.447 880.416)" d="M0.495612 0.570116C0.513942 0.598236 0.532272 0.626356 0.550603 0.654475C0.558487 0.650632 0.566371 0.646788 0.574255 0.642945C0.555728 0.615384 0.5372 0.587822 0.518673 0.560261C0.510986 0.563546 0.503299 0.566831 0.495612 0.570116"/>
		<path fill="white" transform="matrix(-166.983 0 0 -166.983 316.447 880.416)" d="M0.184388 0.570116C0.166058 0.598236 0.147728 0.626356 0.129397 0.654475C0.121513 0.650632 0.113629 0.646788 0.105745 0.642945C0.124272 0.615384 0.1428 0.587822 0.161328 0.560261C0.169014 0.563546 0.176701 0.566831 0.184388 0.570116"/>
		<path fill="none" stroke="black" stroke-width="0.0039924243" stroke-miterlimit="4" transform="matrix(-166.983 0 0 -166.983 316.447 880.416)" d="M0.184388 0.570116C0.166058 0.598236 0.147728 0.626356 0.129397 0.654475C0.121513 0.650632 0.113629 0.646788 0.105745 0.642945C0.124272 0.615384 0.1428 0.587822 0.161328 0.560261C0.169014 0.563546 0.176701 0.566831 0.184388 0.570116"/>
		<path fill="white" transform="matrix(-166.983 0 0 -166.983 316.447 880.416)" d="M0.326006 0.0444464C0.335335 0.0444464 0.344665 0.0444464 0.353994 0.0444464C0.353994 0.0623169 0.353994 0.0801874 0.353994 0.098058C0.344665 0.098058 0.335335 0.098058 0.326006 0.098058C0.326006 0.0801874 0.326006 0.0623169 0.326006 0.0444464L0.326006 0.0444464Z"/>
		<path fill="none" stroke="black" stroke-width="0.0039924243" stroke-miterlimit="4" transform="matrix(-166.983 0 0 -166.983 316.447 880.416)" d="M0.326006 0.0444464C0.335335 0.0444464 0.344665 0.0444464 0.353994 0.0444464C0.353994 0.0623169 0.353994 0.0801874 0.353994 0.098058C0.344665 0.098058 0.335335 0.098058 0.326006 0.098058C0.326006 0.0801874 0.326006 0.0623169 0.326006 0.0444464L0.326006 0.0444464Z"/>
		<path fill="white" transform="matrix(-166.983 0 0 -166.983 316.447 880.416)" d="M0.0111362 0.264609C0.00906667 0.273018 0.0069971 0.281428 0.00492754 0.289838C0.0338686 0.295225 0.0628097 0.300613 0.0917507 0.306C0.093656 0.297623 0.0955614 0.289246 0.0974667 0.28087C0.0686899 0.275449 0.039913 0.270029 0.0111362 0.264609"/>
		<path fill="none" stroke="black" stroke-width="0.0039924243" stroke-miterlimit="4" transform="matrix(-166.983 0 0 -166.983 316.447 880.416)" d="M0.0111362 0.264609C0.00906667 0.273018 0.0069971 0.281428 0.00492754 0.289838C0.0338686 0.295225 0.0628097 0.300613 0.0917507 0.306C0.093656 0.297623 0.0955614 0.289246 0.0974667 0.28087C0.0686899 0.275449 0.039913 0.270029 0.0111362 0.264609"/>
		<path fill="white" transform="matrix(166.983 0 0 166.983 370.615 1009.32)" d="M0.0048913 0.0048913C0.15163 0.0048913 0.29837 0.0048913 0.445109 0.0048913C0.445109 0.15163 0.445109 0.29837 0.445109 0.445109C0.29837 0.445109 0.15163 0.445109 0.0048913 0.445109C0.0048913 0.29837 0.0048913 0.15163 0.0048913 0.0048913L0.0048913 0.0048913Z"/>
		<path fill="none" stroke="black" stroke-width="0.0039924243" stroke-miterlimit="4" transform="matrix(166.983 0 0 166.983 370.615 1009.32)" d="M0.0048913 0.0048913C0.15163 0.0048913 0.29837 0.0048913 0.445109 0.0048913C0.445109 0.15163 0.445109 0.29837 0.445109 0.445109C0.29837 0.445109 0.15163 0.445109 0.0048913 0.445109C0.0048913 0.29837 0.0048913 0.15163 0.0048913 0.0048913L0.0048913 0.0048913Z"/>
		<path fill="white" transform="matrix(166.983 0 0 166.983 397.91 633.281)" d="M0.000503356 0.00050758C0.200168 0.00050758 0.399832 0.00050758 0.599497 0.00050758C0.599497 0.193459 0.599497 0.38641 0.599497 0.579362C0.399832 0.579362 0.200168 0.579362 0.000503356 0.579362C0.000503356 0.38641 0.000503356 0.193459 0.000503356 0.00050758L0.000503356 0.00050758Z"/>
		<path fill="none" stroke="black" stroke-width="0.0039924243" stroke-miterlimit="4" transform="matrix(166.983 0 0 166.983 397.91 633.281)" d="M0.000503356 0.00050758C0.200168 0.00050758 0.399832 0.00050758 0.599497 0.00050758C0.599497 0.193459 0.599497 0.38641 0.599497 0.579362C0.399832 0.579362 0.200168 0.579362 0.000503356 0.579362C0.000503356 0.38641 0.000503356 0.193459 0.000503356 0.00050758L0.000503356 0.00050758Z"/>
		<path fill="white" transform="matrix(166.983 0 0 166.983 397.91 633.281)" d="M0.000503356 0.579362C0.200168 0.579362 0.399832 0.579362 0.599497 0.579362C0.599497 0.586072 0.599497 0.592782 0.599497 0.599492C0.399832 0.599492 0.200168 0.599492 0.000503356 0.599492C0.000503356 0.592782 0.000503356 0.586072 0.000503356 0.579362L0.000503356 0.579362Z"/>
		<path fill="none" stroke="black" stroke-width="0.0039924243" stroke-miterlimit="4" transform="matrix(166.983 0 0 166.983 397.91 633.281)" d="M0.000503356 0.579362C0.200168 0.579362 0.399832 0.579362 0.599497 0.579362C0.599497 0.586072 0.599497 0.592782 0.599497 0.599492C0.399832 0.599492 0.200168 0.599492 0.000503356 0.599492C0.000503356 0.592782 0.000503356 0.586072 0.000503356 0.579362L0.000503356 0.579362Z"/>
		<path fill="white" transform="matrix(-166.983 0 0 -166.983 370.615 1084.46)" d="M1.4975 0.498047C0.999167 0.498047 0.500833 0.498047 0.0025 0.498047C0.0025 0.332682 0.0025 0.167318 0.0025 0.00195312C0.500833 0.00195312 0.999167 0.00195312 1.4975 0.00195312C1.4975 0.167318 1.4975 0.332682 1.4975 0.498047C1.4975 0.498047 1.4975 0.498047 1.4975 0.498047L1.4975 0.498047Z"/>
		<path fill="none" stroke="black" stroke-width="0.0039924243" stroke-miterlimit="4" transform="matrix(-166.983 0 0 -166.983 370.615 1084.46)" d="M1.4975 0.498047C0.999167 0.498047 0.500833 0.498047 0.0025 0.498047C0.0025 0.332682 0.0025 0.167318 0.0025 0.00195312C0.500833 0.00195312 0.999167 0.00195312 1.4975 0.00195312C1.4975 0.167318 1.4975 0.332682 1.4975 0.498047C1.4975 0.498047 1.4975 0.498047 1.4975 0.498047L1.4975 0.498047Z"/>
		<path fill="none" stroke="black" stroke-width="0.0039924243" stroke-miterlimit="4" transform="matrix(-166.983 0 0 -166.983 370.615 1084.46)" d="M0.75 0.498047C0.75 0.486979 0.75 0.475911 0.75 0.464844"/>
		<path fill="none" stroke="black" stroke-width="0.0039924243" stroke-miterlimit="4" transform="matrix(-166.983 0 0 -166.983 370.615 1084.46)" d="M1.4975 0.464844C0.999167 0.464844 0.500833 0.464844 0.0025 0.464844"/>
		<path fill="none" stroke="black" stroke-width="0.0039924243" stroke-miterlimit="4" transform="matrix(0 166.983 166.983 0 693.47 935.597)" d="M0.8 0.8C0.8 0.358 0.442 0 0 0C0 0.266667 0 0.533333 0 0.8"/>
		<path fill="white" transform="matrix(0 -166.983 -166.983 -0 120.14 786.218)" d="M0 0C0.266667 0 0.533333 0 0.8 0C0.8 0.04 0.8 0.08 0.8 0.12C0.533333 0.12 0.266667 0.12 0 0.12C0 0.08 0 0.04 0 0C0 0 0 0 0 0L0 0Z"/>
		<path fill="none" stroke="black" stroke-width="0.0039924243" stroke-miterlimit="4" transform="matrix(0 -166.983 -166.983 -0 120.14 786.218)" d="M0 0C0.266667 0 0.533333 0 0.8 0"/>
		<path fill="none" stroke="black" stroke-width="0.0039924243" stroke-miterlimit="4" transform="matrix(0 -166.983 -166.983 -0 120.14 786.218)" d="M0.8 0.12C0.533333 0.12 0.266667 0.12 0 0.12"/>
		<path fill="none" stroke="black" stroke-width="0.0039924243" stroke-miterlimit="4" transform="matrix(0 -166.983 -166.983 -0 120.14 786.218)" d="M0 0.06C0.266667 0.06 0.533333 0.06 0.8 0.06"/>
		<path fill="white" transform="matrix(0 -166.983 -166.983 -0 120.14 786.218)" d="M0.08 0.12C0.0533333 0.12 0.0266667 0.12 0 0.12C0 0.08 0 0.04 0 0C0.0266667 0 0.0533333 0 0.08 0"/>
		<path fill="none" stroke="black" stroke-width="0.0039924243" stroke-miterlimit="4" transform="matrix(0 -166.983 -166.983 -0 120.14 786.218)" d="M0.08 0.12C0.0533333 0.12 0.0266667 0.12 0 0.12C0 0.08 0 0.04 0 0C0.0266667 0 0.0533333 0 0.08 0"/>
		<path fill="none" stroke="black" stroke-width="0.015969697" stroke-miterlimit="4" transform="matrix(0 -166.983 -166.983 -0 120.14 786.218)" d="M0 0.06C0.0266667 0.06 0.0533333 0.06 0.08 0.06"/>
		<path fill="white" transform="matrix(0 -166.983 -166.983 -0 120.14 665.99)" d="M0 0C0.0266667 0 0.0533333 0 0.08 0C0.08 0.04 0.08 0.08 0.08 0.12C0.0533333 0.12 0.0266667 0.12 0 0.12"/>
		<path fill="none" stroke="black" stroke-width="0.0039924243" stroke-miterlimit="4" transform="matrix(0 -166.983 -166.983 -0 120.14 665.99)" d="M0 0C0.0266667 0 0.0533333 0 0.08 0C0.08 0.04 0.08 0.08 0.08 0.12C0.0533333 0.12 0.0266667 0.12 0 0.12"/>
		<path fill="none" stroke="black" stroke-width="0.015969697" stroke-miterlimit="4" transform="matrix(0 -166.983 -166.983 -0 120.14 665.99)" d="M0 0.06C0.0266667 0.06 0.0533333 0.06 0.08 0.06"/>
		<path fill="white" transform="matrix(166.983 0 0 166.983 934.411 800.942)" d="M0.00496183 0.00493827C0.434987 0.00493827 0.865013 0.00493827 1.29504 0.00493827C1.29504 0.268313 1.29504 0.531687 1.29504 0.795062C0.865013 0.795062 0.434987 0.795062 0.00496183 0.795062C0.00496183 0.531687 0.00496183 0.268313 0.00496183 0.00493827L0.00496183 0.00493827Z"/>
		<path fill="none" stroke="black" stroke-width="0.0039924243" stroke-miterlimit="4" transform="matrix(166.983 0 0 166.983 934.411 800.942)" d="M0.00496183 0.00493827C0.434987 0.00493827 0.865013 0.00493827 1.29504 0.00493827C1.29504 0.268313 1.29504 0.531687 1.29504 0.795062C0.865013 0.795062 0.434987 0.795062 0.00496183 0.795062C0.00496183 0.531687 0.00496183 0.268313 0.00496183 0.00493827L0.00496183 0.00493827Z"/>
		<path fill="white" transform="matrix(0 -166.983 166.983 0 1066.33 800.942)" d="M0.0171637 0.00758929C0.339055 0.00758929 0.660945 0.00758929 0.982836 0.00758929C0.988281 0.00758929 0.99269 0.0130141 0.99269 0.0197048C0.99269 0.17758 0.99269 0.335456 0.99269 0.493331C0.99269 0.500022 0.988281 0.505446 0.982836 0.505446C0.660945 0.505446 0.339055 0.505446 0.0171637 0.505446C0.0117222 0.505446 0.00730994 0.500022 0.00730994 0.493331C0.00730994 0.335456 0.00730994 0.17758 0.00730994 0.0197048C0.00730994 0.0130141 0.0117222 0.00758929 0.0171637 0.00758929C0.0171637 0.00758929 0.0171637 0.00758929 0.0171637 0.00758929L0.0171637 0.00758929Z"/>
		<path fill="none" stroke="black" stroke-width="0.0039924243" stroke-miterlimit="4" transform="matrix(0 -166.983 166.983 0 1066.33 800.942)" d="M0.0171637 0.00758929C0.339055 0.00758929 0.660945 0.00758929 0.982836 0.00758929C0.988281 0.00758929 0.99269 0.0130141 0.99269 0.0197048C0.99269 0.17758 0.99269 0.335456 0.99269 0.493331C0.99269 0.500022 0.988281 0.505446 0.982836 0.505446C0.660945 0.505446 0.339055 0.505446 0.0171637 0.505446C0.0117222 0.505446 0.00730994 0.500022 0.00730994 0.493331C0.00730994 0.335456 0.00730994 0.17758 0.00730994 0.0197048C0.00730994 0.0130141 0.0117222 0.00758929 0.0171637 0.00758929C0.0171637 0.00758929 0.0171637 0.00758929 0.0171637 0.00758929L0.0171637 0.00758929Z"/>
		<path fill="white" transform="matrix(0 -166.983 166.983 0 1066.33 800.942)" d="M0.0531111 0.487232C0.351037 0.487232 0.648963 0.487232 0.946889 0.487232C0.963722 0.487232 0.977371 0.470803 0.977371 0.450536C0.977371 0.321191 0.977371 0.191845 0.977371 0.0624993C0.977371 0.0422329 0.963722 0.0258036 0.946889 0.0258036C0.648963 0.0258036 0.351037 0.0258036 0.0531111 0.0258036C0.0362749 0.0258036 0.0226287 0.0422329 0.0226287 0.0624993C0.0226287 0.191845 0.0226287 0.321191 0.0226287 0.450536C0.0226287 0.470803 0.0362749 0.487232 0.0531111 0.487232C0.0531111 0.487232 0.0531111 0.487232 0.0531111 0.487232L0.0531111 0.487232Z"/>
		<path fill="none" stroke="black" stroke-width="0.0039924243" stroke-miterlimit="4" transform="matrix(0 -166.983 166.983 0 1066.33 800.942)" d="M0.0531111 0.487232C0.351037 0.487232 0.648963 0.487232 0.946889 0.487232C0.963722 0.487232 0.977371 0.470803 0.977371 0.450536C0.977371 0.321191 0.977371 0.191845 0.977371 0.0624993C0.977371 0.0422329 0.963722 0.0258036 0.946889 0.0258036C0.648963 0.0258036 0.351037 0.0258036 0.0531111 0.0258036C0.0362749 0.0258036 0.0226287 0.0422329 0.0226287 0.0624993C0.0226287 0.191845 0.0226287 0.321191 0.0226287 0.450536C0.0226287 0.470803 0.0362749 0.487232 0.0531111 0.487232C0.0531111 0.487232 0.0531111 0.487232 0.0531111 0.487232L0.0531111 0.487232Z"/>
		<path fill="white" transform="matrix(0 -166.983 166.983 0 1066.33 800.942)" d="M0.0527778 0.357061C0.0656784 0.401157 0.0931257 0.423516 0.168886 0.432617C0.243205 0.441545 0.35448 0.440087 0.417573 0.434991C0.501266 0.428227 0.552529 0.394294 0.558672 0.352692C0.564813 0.311091 0.574731 0.170613 0.560965 0.129831C0.546988 0.0884243 0.492763 0.0523145 0.431339 0.0497159C0.369909 0.0471143 0.228354 0.0469595 0.18126 0.0482587C0.134167 0.0495611 0.064652 0.0758625 0.0527778 0.124003C0.0378655 0.184453 0.0378655 0.306079 0.0527778 0.357061C0.0527778 0.357061 0.0527778 0.357061 0.0527778 0.357061L0.0527778 0.357061Z"/>
		<path fill="none" stroke="black" stroke-width="0.0039924243" stroke-miterlimit="4" transform="matrix(0 -166.983 166.983 0 1066.33 800.942)" d="M0.0527778 0.357061C0.0656784 0.401157 0.0931257 0.423516 0.168886 0.432617C0.243205 0.441545 0.35448 0.440087 0.417573 0.434991C0.501266 0.428227 0.552529 0.394294 0.558672 0.352692C0.564813 0.311091 0.574731 0.170613 0.560965 0.129831C0.546988 0.0884243 0.492763 0.0523145 0.431339 0.0497159C0.369909 0.0471143 0.228354 0.0469595 0.18126 0.0482587C0.134167 0.0495611 0.064652 0.0758625 0.0527778 0.124003C0.0378655 0.184453 0.0378655 0.306079 0.0527778 0.357061C0.0527778 0.357061 0.0527778 0.357061 0.0527778 0.357061L0.0527778 0.357061Z"/>
		<path fill="gray" transform="matrix(0 -166.983 166.983 0 1066.33 800.942)" d="M0.304751 0.206838C0.285374 0.206838 0.269664 0.223146 0.269664 0.243267C0.269664 0.263385 0.285374 0.279696 0.304749 0.279696C0.324129 0.279696 0.339839 0.263385 0.339839 0.243267C0.339839 0.223146 0.324129 0.206838 0.304749 0.206838C0.30475 0.206838 0.30475 0.206838 0.304751 0.206838L0.304751 0.206838Z"/>
		<path fill="none" stroke="black" stroke-width="0.0039924243" stroke-miterlimit="4" transform="matrix(0 -166.983 166.983 0 1066.33 800.942)" d="M0.304751 0.206838C0.285374 0.206838 0.269664 0.223146 0.269664 0.243267C0.269664 0.263385 0.285374 0.279696 0.304749 0.279696C0.324129 0.279696 0.339839 0.263385 0.339839 0.243267C0.339839 0.223146 0.324129 0.206838 0.304749 0.206838C0.30475 0.206838 0.30475 0.206838 0.304751 0.206838L0.304751 0.206838Z"/>
		<path fill="white" transform="matrix(0 -166.983 166.983 0 1066.33 800.942)" d="M0.936985 0.380068C0.928512 0.427444 0.910477 0.451462 0.860705 0.46124C0.811883 0.47083 0.738781 0.469267 0.69733 0.46379C0.642351 0.456523 0.60867 0.420067 0.604635 0.375375C0.600599 0.330683 0.594082 0.179766 0.603126 0.135951C0.61231 0.0914691 0.64793 0.0526757 0.688287 0.0498829C0.728643 0.04709 0.82164 0.046923 0.852582 0.0483195C0.883518 0.0497159 0.929184 0.0779723 0.936985 0.129692C0.946787 0.194635 0.946787 0.325298 0.936985 0.380068C0.936985 0.380068 0.936985 0.380068 0.936985 0.380068L0.936985 0.380068Z"/>
		<path fill="none" stroke="black" stroke-width="0.0039924243" stroke-miterlimit="4" transform="matrix(0 -166.983 166.983 0 1066.33 800.942)" d="M0.936985 0.380068C0.928512 0.427444 0.910477 0.451462 0.860705 0.46124C0.811883 0.47083 0.738781 0.469267 0.69733 0.46379C0.642351 0.456523 0.60867 0.420067 0.604635 0.375375C0.600599 0.330683 0.594082 0.179766 0.603126 0.135951C0.61231 0.0914691 0.64793 0.0526757 0.688287 0.0498829C0.728643 0.04709 0.82164 0.046923 0.852582 0.0483195C0.883518 0.0497159 0.929184 0.0779723 0.936985 0.129692C0.946787 0.194635 0.946787 0.325298 0.936985 0.380068C0.936985 0.380068 0.936985 0.380068 0.936985 0.380068L0.936985 0.380068Z"/>
		<path fill="white" transform="matrix(0 -166.983 166.983 0 1066.33 800.942)" d="M0.635301 0.402275C0.726065 0.402275 0.816829 0.402275 0.907594 0.402275C0.912898 0.402275 0.917193 0.398146 0.917193 0.393049C0.917193 0.393049 0.917193 0.393049 0.917193 0.393049C0.917193 0.387952 0.912898 0.383824 0.907594 0.383824C0.816829 0.383824 0.726065 0.383824 0.635301 0.383824C0.630003 0.383824 0.625708 0.387952 0.625708 0.393049C0.625708 0.393049 0.625708 0.393049 0.625708 0.393049C0.625708 0.398146 0.630003 0.402275 0.635301 0.402275C0.635301 0.402275 0.635301 0.402275 0.635301 0.402275L0.635301 0.402275Z"/>
		<path fill="none" stroke="black" stroke-width="0.0039924243" stroke-miterlimit="4" transform="matrix(0 -166.983 166.983 0 1066.33 800.942)" d="M0.635301 0.402275C0.726065 0.402275 0.816829 0.402275 0.907594 0.402275C0.912898 0.402275 0.917193 0.398146 0.917193 0.393049C0.917193 0.393049 0.917193 0.393049 0.917193 0.393049C0.917193 0.387952 0.912898 0.383824 0.907594 0.383824C0.816829 0.383824 0.726065 0.383824 0.635301 0.383824C0.630003 0.383824 0.625708 0.387952 0.625708 0.393049C0.625708 0.393049 0.625708 0.393049 0.625708 0.393049C0.625708 0.398146 0.630003 0.402275 0.635301 0.402275C0.635301 0.402275 0.635301 0.402275 0.635301 0.402275L0.635301 0.402275Z"/>
		<path fill="white" transform="matrix(0 -166.983 166.983 0 1066.33 800.942)" d="M0.62393 0.357252C0.722277 0.357252 0.820624 0.357252 0.918971 0.357252C0.923094 0.357252 0.926436 0.353123 0.926436 0.348026C0.926436 0.348026 0.926436 0.348026 0.926436 0.348026C0.926436 0.342929 0.923094 0.338801 0.918971 0.338801C0.820624 0.338801 0.722277 0.338801 0.62393 0.338801C0.619807 0.338801 0.616465 0.342929 0.616465 0.348026C0.616465 0.348026 0.616465 0.348026 0.616465 0.348026C0.616465 0.353123 0.619807 0.357252 0.62393 0.357252C0.62393 0.357252 0.62393 0.357252 0.62393 0.357252L0.62393 0.357252Z"/>
		<path fill="none" stroke="black" stroke-width="0.0039924243" stroke-miterlimit="4" transform="matrix(0 -166.983 166.983 0 1066.33 800.942)" d="M0.62393 0.357252C0.722277 0.357252 0.820624 0.357252 0.918971 0.357252C0.923094 0.357252 0.926436 0.353123 0.926436 0.348026C0.926436 0.348026 0.926436 0.348026 0.926436 0.348026C0.926436 0.342929 0.923094 0.338801 0.918971 0.338801C0.820624 0.338801 0.722277 0.338801 0.62393 0.338801C0.619807 0.338801 0.616465 0.342929 0.616465 0.348026C0.616465 0.348026 0.616465 0.348026 0.616465 0.348026C0.616465 0.353123 0.619807 0.357252 0.62393 0.357252C0.62393 0.357252 0.62393 0.357252 0.62393 0.357252L0.62393 0.357252Z"/>
		<path fill="white" transform="matrix(0 -166.983 166.983 0 1066.33 800.942)" d="M0.62393 0.312757C0.722277 0.312757 0.820624 0.312757 0.918971 0.312757C0.923094 0.312757 0.926436 0.308629 0.926436 0.303532C0.926436 0.303532 0.926436 0.303532 0.926436 0.303532C0.926436 0.298438 0.923094 0.294306 0.918971 0.294306C0.820624 0.294306 0.722277 0.294306 0.62393 0.294306C0.619807 0.294306 0.616465 0.298438 0.616465 0.303532C0.616465 0.303532 0.616465 0.303532 0.616465 0.303532C0.616465 0.308629 0.619807 0.312757 0.62393 0.312757C0.62393 0.312757 0.62393 0.312757 0.62393 0.312757L0.62393 0.312757Z"/>
		<path fill="none" stroke="black" stroke-width="0.0039924243" stroke-miterlimit="4" transform="matrix(0 -166.983 166.983 0 1066.33 800.942)" d="M0.62393 0.312757C0.722277 0.312757 0.820624 0.312757 0.918971 0.312757C0.923094 0.312757 0.926436 0.308629 0.926436 0.303532C0.926436 0.303532 0.926436 0.303532 0.926436 0.303532C0.926436 0.298438 0.923094 0.294306 0.918971 0.294306C0.820624 0.294306 0.722277 0.294306 0.62393 0.294306C0.619807 0.294306 0.616465 0.298438 0.616465 0.303532C0.616465 0.303532 0.616465 0.303532 0.616465 0.303532C0.616465 0.308629 0.619807 0.312757 0.62393 0.312757C0.62393 0.312757 0.62393 0.312757 0.62393 0.312757L0.62393 0.312757Z"/>
		<path fill="white" transform="matrix(0 -166.983 166.983 0 1066.33 800.942)" d="M0.62393 0.265743C0.722277 0.265743 0.820624 0.265743 0.918971 0.265743C0.923094 0.265743 0.926436 0.261615 0.926436 0.256518C0.926436 0.256518 0.926436 0.256518 0.926436 0.256518C0.926436 0.251421 0.923094 0.247292 0.918971 0.247292C0.820624 0.247292 0.722277 0.247292 0.62393 0.247292C0.619807 0.247292 0.616465 0.251421 0.616465 0.256518C0.616465 0.256518 0.616465 0.256518 0.616465 0.256518C0.616465 0.261615 0.619807 0.265743 0.62393 0.265743C0.62393 0.265743 0.62393 0.265743 0.62393 0.265743L0.62393 0.265743Z"/>
		<path fill="none" stroke="black" stroke-width="0.0039924243" stroke-miterlimit="4" transform="matrix(0 -166.983 166.983 0 1066.33 800.942)" d="M0.62393 0.265743C0.722277 0.265743 0.820624 0.265743 0.918971 0.265743C0.923094 0.265743 0.926436 0.261615 0.926436 0.256518C0.926436 0.256518 0.926436 0.256518 0.926436 0.256518C0.926436 0.251421 0.923094 0.247292 0.918971 0.247292C0.820624 0.247292 0.722277 0.247292 0.62393 0.247292C0.619807 0.247292 0.616465 0.251421 0.616465 0.256518C0.616465 0.256518 0.616465 0.256518 0.616465 0.256518C0.616465 0.261615 0.619807 0.265743 0.62393 0.265743C0.62393 0.265743 0.62393 0.265743 0.62393 0.265743L0.62393 0.265743Z"/>
		<path fill="white" transform="matrix(0 -166.983 166.983 0 1066.33 800.942)" d="M0.62393 0.220493C0.722277 0.220493 0.820624 0.220493 0.918971 0.220493C0.923094 0.220493 0.926436 0.216364 0.926436 0.211268C0.926436 0.211268 0.926436 0.211268 0.926436 0.211268C0.926436 0.206174 0.923094 0.202042 0.918971 0.202042C0.820624 0.202042 0.722277 0.202042 0.62393 0.202042C0.619807 0.202042 0.616465 0.206174 0.616465 0.211268C0.616465 0.211268 0.616465 0.211268 0.616465 0.211268C0.616465 0.216364 0.619807 0.220493 0.62393 0.220493C0.62393 0.220493 0.62393 0.220493 0.62393 0.220493L0.62393 0.220493Z"/>
		<path fill="none" stroke="black" stroke-width="0.0039924243" stroke-miterlimit="4" transform="matrix(0 -166.983 166.983 0 1066.33 800.942)" d="M0.62393 0.220493C0.722277 0.220493 0.820624 0.220493 0.918971 0.220493C0.923094 0.220493 0.926436 0.216364 0.926436 0.211268C0.926436 0.211268 0.926436 0.211268 0.926436 0.211268C0.926436 0.206174 0.923094 0.202042 0.918971 0.202042C0.820624 0.202042 0.722277 0.202042 0.62393 0.202042C0.619807 0.202042 0.616465 0.206174 0.616465 0.211268C0.616465 0.211268 0.616465 0.211268 0.616465 0.211268C0.616465 0.216364 0.619807 0.220493 0.62393 0.220493C0.62393 0.220493 0.62393 0.220493 0.62393 0.220493L0.62393 0.220493Z"/>
		<path fill="white" transform="matrix(0 -166.983 166.983 0 1066.33 800.942)" d="M0.62393 0.173992C0.722277 0.173992 0.820624 0.173992 0.918971 0.173992C0.923094 0.173992 0.926436 0.169863 0.926436 0.164766C0.926436 0.164766 0.926436 0.164766 0.926436 0.164766C0.926436 0.159669 0.923094 0.155541 0.918971 0.155541C0.820624 0.155541 0.722277 0.155541 0.62393 0.155541C0.619807 0.155541 0.616465 0.159669 0.616465 0.164766C0.616465 0.164766 0.616465 0.164766 0.616465 0.164766C0.616465 0.169863 0.619807 0.173992 0.62393 0.173992C0.62393 0.173992 0.62393 0.173992 0.62393 0.173992L0.62393 0.173992Z"/>
		<path fill="none" stroke="black" stroke-width="0.0039924243" stroke-miterlimit="4" transform="matrix(0 -166.983 166.983 0 1066.33 800.942)" d="M0.62393 0.173992C0.722277 0.173992 0.820624 0.173992 0.918971 0.173992C0.923094 0.173992 0.926436 0.169863 0.926436 0.164766C0.926436 0.164766 0.926436 0.164766 0.926436 0.164766C0.926436 0.159669 0.923094 0.155541 0.918971 0.155541C0.820624 0.155541 0.722277 0.155541 0.62393 0.155541C0.619807 0.155541 0.616465 0.159669 0.616465 0.164766C0.616465 0.164766 0.616465 0.164766 0.616465 0.164766C0.616465 0.169863 0.619807 0.173992 0.62393 0.173992C0.62393 0.173992 0.62393 0.173992 0.62393 0.173992L0.62393 0.173992Z"/>
		<path fill="white" transform="matrix(0 -166.983 166.983 0 1066.33 800.942)" d="M0.635301 0.128229C0.726065 0.128229 0.816829 0.128229 0.907594 0.128229C0.912898 0.128229 0.917193 0.1241 0.917193 0.119003C0.917193 0.119003 0.917193 0.119003 0.917193 0.119003C0.917193 0.113906 0.912898 0.109777 0.907594 0.109777C0.816829 0.109777 0.726065 0.109777 0.635301 0.109777C0.630003 0.109777 0.625708 0.113906 0.625708 0.119003C0.625708 0.119003 0.625708 0.119003 0.625708 0.119003C0.625708 0.1241 0.630003 0.128229 0.635301 0.128229C0.635301 0.128229 0.635301 0.128229 0.635301 0.128229L0.635301 0.128229Z"/>
		<path fill="none" stroke="black" stroke-width="0.0039924243" stroke-miterlimit="4" transform="matrix(0 -166.983 166.983 0 1066.33 800.942)" d="M0.635301 0.128229C0.726065 0.128229 0.816829 0.128229 0.907594 0.128229C0.912898 0.128229 0.917193 0.1241 0.917193 0.119003C0.917193 0.119003 0.917193 0.119003 0.917193 0.119003C0.917193 0.113906 0.912898 0.109777 0.907594 0.109777C0.816829 0.109777 0.726065 0.109777 0.635301 0.109777C0.630003 0.109777 0.625708 0.113906 0.625708 0.119003C0.625708 0.119003 0.625708 0.119003 0.625708 0.119003C0.625708 0.1241 0.630003 0.128229 0.635301 0.128229C0.635301 0.128229 0.635301 0.128229 0.635301 0.128229L0.635301 0.128229Z"/>
		<path fill="gray" transform="matrix(0 -166.983 166.983 0 1066.33 800.942)" d="M0.294775 0.437465C0.278626 0.437465 0.265535 0.451055 0.265535 0.467822C0.265535 0.484588 0.278626 0.498179 0.294775 0.498179C0.310924 0.498179 0.324015 0.484588 0.324015 0.467822C0.324015 0.451055 0.310924 0.437465 0.294775 0.437465C0.294775 0.437465 0.294775 0.437465 0.294775 0.437465L0.294775 0.437465Z"/>
		<path fill="none" stroke="black" stroke-width="0.0039924243" stroke-miterlimit="4" transform="matrix(0 -166.983 166.983 0 1066.33 800.942)" d="M0.294775 0.437465C0.278626 0.437465 0.265535 0.451055 0.265535 0.467822C0.265535 0.484588 0.278626 0.498179 0.294775 0.498179C0.310924 0.498179 0.324015 0.484588 0.324015 0.467822C0.324015 0.451055 0.310924 0.437465 0.294775 0.437465C0.294775 0.437465 0.294775 0.437465 0.294775 0.437465L0.294775 0.437465Z"/>
		<path fill="gray" transform="matrix(0 -166.983 166.983 0 1066.33 800.942)" d="M0.288734 0.474091C0.300632 0.484385 0.313126 0.466568 0.300348 0.4556C0.28757 0.444629 0.239863 0.404148 0.229105 0.395702C0.213231 0.383241 0.200868 0.402038 0.215968 0.414597C0.23107 0.427155 0.281763 0.468062 0.288734 0.474091C0.288734 0.474091 0.288734 0.474091 0.288734 0.474091L0.288734 0.474091Z"/>
		<path fill="none" stroke="black" stroke-width="0.0039924243" stroke-miterlimit="4" transform="matrix(0 -166.983 166.983 0 1066.33 800.942)" d="M0.288734 0.474091C0.300632 0.484385 0.313126 0.466568 0.300348 0.4556C0.28757 0.444629 0.239863 0.404148 0.229105 0.395702C0.213231 0.383241 0.200868 0.402038 0.215968 0.414597C0.23107 0.427155 0.281763 0.468062 0.288734 0.474091C0.288734 0.474091 0.288734 0.474091 0.288734 0.474091L0.288734 0.474091Z"/>
		<path fill="white" transform="matrix(0 166.983 -166.983 0 1151.49 934.529)" d="M1.4975 0.498047C0.999167 0.498047 0.500833 0.498047 0.0025 0.498047C0.0025 0.332682 0.0025 0.167318 0.0025 0.00195312C0.500833 0.00195312 0.999167 0.00195312 1.4975 0.00195312C1.4975 0.167318 1.4975 0.332682 1.4975 0.498047C1.4975 0.498047 1.4975 0.498047 1.4975 0.498047L1.4975 0.498047Z"/>
		<path fill="none" stroke="black" stroke-width="0.0039924243" stroke-miterlimit="4" transform="matrix(0 166.983 -166.983 0 1151.49 934.529)" d="M1.4975 0.498047C0.999167 0.498047 0.500833 0.498047 0.0025 0.498047C0.0025 0.332682 0.0025 0.167318 0.0025 0.00195312C0.500833 0.00195312 0.999167 0.00195312 1.4975 0.00195312C1.4975 0.167318 1.4975 0.332682 1.4975 0.498047C1.4975 0.498047 1.4975 0.498047 1.4975 0.498047L1.4975 0.498047Z"/>
		<path fill="none" stroke="black" stroke-width="0.0039924243" stroke-miterlimit="4" transform="matrix(0 166.983 -166.983 0 1151.49 934.529)" d="M0.75 0.498047C0.75 0.486979 0.75 0.475911 0.75 0.464844"/>
		<path fill="none" stroke="black" stroke-width="0.0039924243" stroke-miterlimit="4" transform="matrix(0 166.983 -166.983 0 1151.49 934.529)" d="M1.4975 0.464844C0.999167 0.464844 0.500833 0.464844 0.0025 0.464844"/>
		<path fill="white" transform="matrix(0 166.983 -166.983 0 1151.49 1185)" d="M1.4975 0.498047C0.999167 0.498047 0.500833 0.498047 0.0025 0.498047C0.0025 0.332682 0.0025 0.167318 0.0025 0.00195312C0.500833 0.00195312 0.999167 0.00195312 1.4975 0.00195312C1.4975 0.167318 1.4975 0.332682 1.4975 0.498047C1.4975 0.498047 1.4975 0.498047 1.4975 0.498047L1.4975 0.498047Z"/>
		<path fill="none" stroke="black" stroke-width="0.0039924243" stroke-miterlimit="4" transform="matrix(0 166.983 -166.983 0 1151.49 1185)" d="M1.4975 0.498047C0.999167 0.498047 0.500833 0.498047 0.0025 0.498047C0.0025 0.332682 0.0025 0.167318 0.0025 0.00195312C0.500833 0.00195312 0.999167 0.00195312 1.4975 0.00195312C1.4975 0.167318 1.4975 0.332682 1.4975 0.498047C1.4975 0.498047 1.4975 0.498047 1.4975 0.498047L1.4975 0.498047Z"/>
		<path fill="none" stroke="black" stroke-width="0.0039924243" stroke-miterlimit="4" transform="matrix(0 166.983 -166.983 0 1151.49 1185)" d="M0.75 0.498047C0.75 0.486979 0.75 0.475911 0.75 0.464844"/>
		<path fill="none" stroke="black" stroke-width="0.0039924243" stroke-miterlimit="4" transform="matrix(0 166.983 -166.983 0 1151.49 1185)" d="M1.4975 0.464844C0.999167 0.464844 0.500833 0.464844 0.0025 0.464844"/>
		<path fill="none" stroke="black" stroke-width="0.0039924243" stroke-miterlimit="4" transform="matrix(0 166.983 166.983 0 693.471 1156.45)" d="M0.8 0.8C0.8 0.358 0.442 0 0 0C0 0.266667 0 0.533333 0 0.8"/>
		<path fill="none" stroke="black" stroke-width="0.0039924243" stroke-miterlimit="4" transform="matrix(-166.983 -0 -0 -166.983 1048.34 757.527)" d="M0.8 0.8C0.8 0.358 0.442 0 0 0C0 0.266667 0 0.533333 0 0.8"/>
		<path fill="none" stroke="black" stroke-width="0.0039924243" stroke-miterlimit="4" transform="matrix(-166.983 0 0 166.983 1065.62 1429.86)" d="M0.8 0.8C0.8 0.358 0.442 0 0 0C0 0.266667 0 0.533333 0 0.8"/>
		<path fill="white" transform="matrix(-0 -166.983 166.983 0 1089.71 718.598)" d="M0.000833333 0.0267148C0.166944 0.0267148 0.333056 0.0267148 0.499167 0.0267148C0.499167 0.140698 0.499167 0.254681 0.499167 0.368664C0.333056 0.368664 0.166944 0.368664 0.000833333 0.368664C0.000833333 0.254681 0.000833333 0.140698 0.000833333 0.0267148C0.000833333 0.0267148 0.000833333 0.0267148 0.000833333 0.0267148L0.000833333 0.0267148Z"/>
		<path fill="none" stroke="black" stroke-width="0.0039924243" stroke-miterlimit="4" transform="matrix(-0 -166.983 166.983 0 1089.71 718.598)" d="M0.000833333 0.0267148C0.166944 0.0267148 0.333056 0.0267148 0.499167 0.0267148C0.499167 0.140698 0.499167 0.254681 0.499167 0.368664C0.333056 0.368664 0.166944 0.368664 0.000833333 0.368664C0.000833333 0.254681 0.000833333 0.140698 0.000833333 0.0267148C0.000833333 0.0267148 0.000833333 0.0267148 0.000833333 0.0267148L0.000833333 0.0267148Z"/>
		<path fill="none" stroke="gray" stroke-width="0.0039924243" stroke-miterlimit="4" transform="matrix(-0 -166.983 166.983 0 1089.71 718.598)" d="M0.000833333 0.0785415C0.0165 0.0788087 0.017 0.103119 0.000833333 0.103119C0.001 0.100715 0.000833333 0.0785415 0.000833333 0.0785415C0.000833333 0.0785415 0.000833333 0.0785415 0.000833333 0.0785415L0.000833333 0.0785415Z"/>
		<path fill="none" stroke="gray" stroke-width="0.0039924243" stroke-miterlimit="4" transform="matrix(-0 -166.983 166.983 0 1089.71 718.598)" d="M0.000833333 0.303213C0.0165 0.30348 0.017 0.327791 0.000833333 0.327791C0.001 0.325386 0.000833333 0.303213 0.000833333 0.303213C0.000833333 0.303213 0.000833333 0.303213 0.000833333 0.303213L0.000833333 0.303213Z"/>
		<path fill="none" stroke="gray" stroke-width="0.0039924243" stroke-miterlimit="4" transform="matrix(-0 -166.983 166.983 0 1089.71 718.598)" d="M0.499167 0.303213C0.4835 0.30348 0.483 0.327791 0.499167 0.327791C0.499 0.325386 0.499167 0.303213 0.499167 0.303213C0.499167 0.303213 0.499167 0.303213 0.499167 0.303213L0.499167 0.303213Z"/>
		<path fill="none" stroke="gray" stroke-width="0.0039924243" stroke-miterlimit="4" transform="matrix(-0 -166.983 166.983 0 1089.71 718.598)" d="M0.499167 0.0785415C0.4835 0.0788087 0.483 0.103119 0.499167 0.103119C0.499 0.100715 0.499167 0.0785415 0.499167 0.0785415C0.499167 0.0785415 0.499167 0.0785415 0.499167 0.0785415L0.499167 0.0785415Z"/>
		<path fill="none" stroke="black" stroke-width="0.0039924243" stroke-miterlimit="4" transform="matrix(-0 -166.983 166.983 0 1089.71 718.598)" d="M0.25 0.0267148C0.25 0.034284 0.25 0.0418532 0.25 0.0494224"/>
		<path fill="none" stroke="black" stroke-width="0.0039924243" stroke-miterlimit="4" transform="matrix(-0 -166.983 166.983 0 1089.71 718.598)" d="M0.00116667 0.0491552C0.167167 0.0492443 0.333167 0.0493333 0.499167 0.0494224"/>
		<path fill="none" stroke="gray" stroke-width="0.0039924243" stroke-miterlimit="4" transform="matrix(-0 -166.983 166.983 0 1089.71 718.598)" d="M0.00783333 0.0593069C0.169278 0.0593069 0.330722 0.0593069 0.492167 0.0593069C0.492167 0.158775 0.492167 0.258243 0.492167 0.357711C0.330722 0.357711 0.169278 0.357711 0.00783333 0.357711C0.00783333 0.258243 0.00783333 0.158775 0.00783333 0.0593069C0.00783333 0.0593069 0.00783333 0.0593069 0.00783333 0.0593069L0.00783333 0.0593069Z"/>
		<path fill="gray" transform="matrix(-0 -166.983 166.983 0 1089.71 718.598)" d="M0.220667 0.0267148C0.220667 0.0232419 0.220667 0.019769 0.220667 0.016296C0.220333 0.0160289 0.219833 0.0160289 0.2195 0.0154946C0.217833 0.0136245 0.2175 0.0117545 0.217333 0.00854874C0.217333 0.00400722 0.219667 0.000267148 0.222333 0.000267148C0.225 0.000267148 0.227333 0.00400722 0.227333 0.00854874C0.227333 0.0114874 0.2265 0.0138917 0.225167 0.0154946C0.224833 0.0160289 0.224333 0.0160289 0.224 0.016296C0.224 0.019769 0.224 0.0232419 0.224 0.0267148C0.222889 0.0267148 0.221778 0.0267148 0.220667 0.0267148C0.220667 0.0267148 0.220667 0.0267148 0.220667 0.0267148L0.220667 0.0267148Z"/>
		<path fill="gray" transform="matrix(-0 -166.983 166.983 0 1089.71 718.598)" d="M0.273333 0.0267148C0.273333 0.0232419 0.273333 0.019769 0.273333 0.016296C0.273 0.0160289 0.2725 0.0160289 0.272167 0.0154946C0.2705 0.0136245 0.270167 0.0117545 0.27 0.00854874C0.27 0.00400722 0.272333 0.000267148 0.275 0.000267148C0.277833 0.000267148 0.28 0.00400722 0.28 0.00854874C0.28 0.0114874 0.279167 0.0138917 0.277833 0.0154946C0.2775 0.0160289 0.277 0.0160289 0.276667 0.016296C0.276667 0.019769 0.276667 0.0232419 0.276667 0.0267148C0.275556 0.0267148 0.274444 0.0267148 0.273333 0.0267148C0.273333 0.0267148 0.273333 0.0267148 0.273333 0.0267148L0.273333 0.0267148Z"/>
		<path fill="white" transform="matrix(-0 -166.983 166.983 0 1089.71 784.672)" d="M0.000833333 0.0267148C0.166944 0.0267148 0.333056 0.0267148 0.499167 0.0267148C0.499167 0.140698 0.499167 0.254681 0.499167 0.368664C0.333056 0.368664 0.166944 0.368664 0.000833333 0.368664C0.000833333 0.254681 0.000833333 0.140698 0.000833333 0.0267148C0.000833333 0.0267148 0.000833333 0.0267148 0.000833333 0.0267148L0.000833333 0.0267148Z"/>
		<path fill="none" stroke="black" stroke-width="0.0039924243" stroke-miterlimit="4" transform="matrix(-0 -166.983 166.983 0 1089.71 784.672)" d="M0.000833333 0.0267148C0.166944 0.0267148 0.333056 0.0267148 0.499167 0.0267148C0.499167 0.140698 0.499167 0.254681 0.499167 0.368664C0.333056 0.368664 0.166944 0.368664 0.000833333 0.368664C0.000833333 0.254681 0.000833333 0.140698 0.000833333 0.0267148C0.000833333 0.0267148 0.000833333 0.0267148 0.000833333 0.0267148L0.000833333 0.0267148Z"/>
		<path fill="none" stroke="gray" stroke-width="0.0039924243" stroke-miterlimit="4" transform="matrix(-0 -166.983 166.983 0 1089.71 784.672)" d="M0.000833333 0.0785415C0.0165 0.0788087 0.017 0.103119 0.000833333 0.103119C0.001 0.100715 0.000833333 0.0785415 0.000833333 0.0785415C0.000833333 0.0785415 0.000833333 0.0785415 0.000833333 0.0785415L0.000833333 0.0785415Z"/>
		<path fill="none" stroke="gray" stroke-width="0.0039924243" stroke-miterlimit="4" transform="matrix(-0 -166.983 166.983 0 1089.71 784.672)" d="M0.000833333 0.303213C0.0165 0.30348 0.017 0.327791 0.000833333 0.327791C0.001 0.325386 0.000833333 0.303213 0.000833333 0.303213C0.000833333 0.303213 0.000833333 0.303213 0.000833333 0.303213L0.000833333 0.303213Z"/>
		<path fill="none" stroke="gray" stroke-width="0.0039924243" stroke-miterlimit="4" transform="matrix(-0 -166.983 166.983 0 1089.71 784.672)" d="M0.499167 0.303213C0.4835 0.30348 0.483 0.327791 0.499167 0.327791C0.499 0.325386 0.499167 0.303213 0.499167 0.303213C0.499167 0.303213 0.499167 0.303213 0.499167 0.303213L0.499167 0.303213Z"/>
		<path fill="none" stroke="gray" stroke-width="0.0039924243" stroke-miterlimit="4" transform="matrix(-0 -166.983 166.983 0 1089.71 784.672)" d="M0.499167 0.0785415C0.4835 0.0788087 0.483 0.103119 0.499167 0.103119C0.499 0.100715 0.499167 0.0785415 0.499167 0.0785415C0.499167 0.0785415 0.499167 0.0785415 0.499167 0.0785415L0.499167 0.0785415Z"/>
		<path fill="none" stroke="black" stroke-width="0.0039924243" stroke-miterlimit="4" transform="matrix(-0 -166.983 166.983 0 1089.71 784.672)" d="M0.25 0.0267148C0.25 0.034284 0.25 0.0418532 0.25 0.0494224"/>
		<path fill="none" stroke="black" stroke-width="0.0039924243" stroke-miterlimit="4" transform="matrix(-0 -166.983 166.983 0 1089.71 784.672)" d="M0.00116667 0.0491552C0.167167 0.0492443 0.333167 0.0493333 0.499167 0.0494224"/>
		<path fill="none" stroke="gray" stroke-width="0.0039924243" stroke-miterlimit="4" transform="matrix(-0 -166.983 166.983 0 1089.71 784.672)" d="M0.00783333 0.0593069C0.169278 0.0593069 0.330722 0.0593069 0.492167 0.0593069C0.492167 0.158775 0.492167 0.258243 0.492167 0.357711C0.330722 0.357711 0.169278 0.357711 0.00783333 0.357711C0.00783333 0.258243 0.00783333 0.158775 0.00783333 0.0593069C0.00783333 0.0593069 0.00783333 0.0593069 0.00783333 0.0593069L0.00783333 0.0593069Z"/>
		<path fill="gray" transform="matrix(-0 -166.983 166.983 0 1089.71 784.672)" d="M0.220667 0.0267148C0.220667 0.0232419 0.220667 0.019769 0.220667 0.016296C0.220333 0.0160289 0.219833 0.0160289 0.2195 0.0154946C0.217833 0.0136245 0.2175 0.0117545 0.217333 0.00854874C0.217333 0.00400722 0.219667 0.000267148 0.222333 0.000267148C0.225 0.000267148 0.227333 0.00400722 0.227333 0.00854874C0.227333 0.0114874 0.2265 0.0138917 0.225167 0.0154946C0.224833 0.0160289 0.224333 0.0160289 0.224 0.016296C0.224 0.019769 0.224 0.0232419 0.224 0.0267148C0.222889 0.0267148 0.221778 0.0267148 0.220667 0.0267148C0.220667 0.0267148 0.220667 0.0267148 0.220667 0.0267148L0.220667 0.0267148Z"/>
		<path fill="gray" transform="matrix(-0 -166.983 166.983 0 1089.71 784.672)" d="M0.273333 0.0267148C0.273333 0.0232419 0.273333 0.019769 0.273333 0.016296C0.273 0.0160289 0.2725 0.0160289 0.272167 0.0154946C0.2705 0.0136245 0.270167 0.0117545 0.27 0.00854874C0.27 0.00400722 0.272333 0.000267148 0.275 0.000267148C0.277833 0.000267148 0.28 0.00400722 0.28 0.00854874C0.28 0.0114874 0.279167 0.0138917 0.277833 0.0154946C0.2775 0.0160289 0.277 0.0160289 0.276667 0.016296C0.276667 0.019769 0.276667 0.0232419 0.276667 0.0267148C0.275556 0.0267148 0.274444 0.0267148 0.273333 0.0267148C0.273333 0.0267148 0.273333 0.0267148 0.273333 0.0267148L0.273333 0.0267148Z"/>
		<path fill="white" transform="matrix(0 166.983 -166.983 0 1152.72 531.432)" d="M0.0485179 0.202942C0.00235238 0.355592 0.0262683 0.520568 0.109876 0.625983C0.193483 0.731399 0.300419 0.731399 0.384026 0.625983C0.467634 0.520568 0.491648 0.355592 0.445482 0.202942"/>
		<path fill="none" stroke="black" stroke-width="0.0039924243" stroke-miterlimit="4" transform="matrix(0 166.983 -166.983 0 1152.72 531.432)" d="M0.0485179 0.202942C0.00235238 0.355592 0.0262683 0.520568 0.109876 0.625983C0.193483 0.731399 0.300419 0.731399 0.384026 0.625983C0.467634 0.520568 0.491648 0.355592 0.445482 0.202942"/>
		<path fill="white" transform="matrix(0 166.983 -166.983 0 1152.72 531.432)" d="M0.092527 0.253825C0.0779226 0.32729 0.0793929 0.41111 0.0988 0.481321C0.117129 0.54739 0.150552 0.600147 0.183976 0.626969C0.212008 0.649551 0.236218 0.655172 0.260526 0.650932C0.284834 0.646692 0.314337 0.629533 0.341291 0.594526C0.368246 0.559519 0.390985 0.508044 0.402649 0.449765C0.415293 0.386851 0.414313 0.316542 0.401669 0.253825"/>
		<path fill="none" stroke="black" stroke-width="0.0039924243" stroke-miterlimit="4" transform="matrix(0 166.983 -166.983 0 1152.72 531.432)" d="M0.092527 0.253825C0.0779226 0.32729 0.0793929 0.41111 0.0988 0.481321C0.117129 0.54739 0.150552 0.600147 0.183976 0.626969C0.212008 0.649551 0.236218 0.655172 0.260526 0.650932C0.284834 0.646692 0.314337 0.629533 0.341291 0.594526C0.368246 0.559519 0.390985 0.508044 0.402649 0.449765C0.415293 0.386851 0.414313 0.316542 0.401669 0.253825"/>
		<path fill="white" transform="matrix(0 166.983 -166.983 0 1152.72 531.432)" d="M0.0598877 0.00493056C0.184629 0.00493056 0.309371 0.00493056 0.434112 0.00493056C0.464497 0.00493056 0.489099 0.0272167 0.489099 0.0547292C0.489099 0.0878954 0.489099 0.121062 0.489099 0.154228C0.489099 0.18174 0.464497 0.204026 0.434112 0.204026C0.309371 0.204026 0.184629 0.204026 0.0598877 0.204026C0.0295028 0.204026 0.00490079 0.18174 0.00490079 0.154228C0.00490079 0.121062 0.00490079 0.0878954 0.00490079 0.0547292C0.00490079 0.0272167 0.0295028 0.00493056 0.0598877 0.00493056C0.0598877 0.00493056 0.0598877 0.00493056 0.0598877 0.00493056L0.0598877 0.00493056Z"/>
		<path fill="none" stroke="black" stroke-width="0.0039924243" stroke-miterlimit="4" transform="matrix(0 166.983 -166.983 0 1152.72 531.432)" d="M0.0598877 0.00493056C0.184629 0.00493056 0.309371 0.00493056 0.434112 0.00493056C0.464497 0.00493056 0.489099 0.0272167 0.489099 0.0547292C0.489099 0.0878954 0.489099 0.121062 0.489099 0.154228C0.489099 0.18174 0.464497 0.204026 0.434112 0.204026C0.309371 0.204026 0.184629 0.204026 0.0598877 0.204026C0.0295028 0.204026 0.00490079 0.18174 0.00490079 0.154228C0.00490079 0.121062 0.00490079 0.0878954 0.00490079 0.0547292C0.00490079 0.0272167 0.0295028 0.00493056 0.0598877 0.00493056C0.0598877 0.00493056 0.0598877 0.00493056 0.0598877 0.00493056L0.0598877 0.00493056Z"/>
		<path fill="none" stroke="black" stroke-width="0.0039924243" stroke-miterlimit="4" transform="matrix(0 166.983 -166.983 0 1152.72 531.432)" d="M0.092527 0.253825C0.195574 0.253825 0.298622 0.253825 0.401669 0.253825"/>
		<path fill="white" transform="matrix(0 166.983 -166.983 0 1152.72 531.432)" d="M0.294832 0.104528C0.294832 0.128382 0.273417 0.147719 0.247 0.147719C0.220583 0.147719 0.199168 0.128382 0.199168 0.104528C0.199168 0.0806737 0.220583 0.0613361 0.247 0.0613361C0.273417 0.0613361 0.294832 0.0806737 0.294832 0.104528C0.294832 0.104528 0.294832 0.104528 0.294832 0.104528L0.294832 0.104528Z"/>
		<path fill="none" stroke="black" stroke-width="0.0039924243" stroke-miterlimit="4" transform="matrix(0 166.983 -166.983 0 1152.72 531.432)" d="M0.294832 0.104528C0.294832 0.128382 0.273417 0.147719 0.247 0.147719C0.220583 0.147719 0.199168 0.128382 0.199168 0.104528C0.199168 0.0806737 0.220583 0.0613361 0.247 0.0613361C0.273417 0.0613361 0.294832 0.0806737 0.294832 0.104528C0.294832 0.104528 0.294832 0.104528 0.294832 0.104528L0.294832 0.104528Z"/>
		<path fill="none" stroke="black" stroke-width="0.0039924243" stroke-miterlimit="4" transform="matrix(0 166.983 -166.983 0 1152.72 531.432)" d="M0.247 0.147719C0.247 0.118892 0.247 0.0900648 0.247 0.0612375"/>
		<path fill="white" transform="matrix(0 166.983 -166.983 0 1152.72 531.432)" d="M0.280129 0.313583C0.280129 0.330085 0.265341 0.343462 0.247098 0.343462C0.228855 0.343462 0.214067 0.330085 0.214067 0.313583C0.214067 0.297082 0.228855 0.283704 0.247098 0.283704C0.265341 0.283704 0.280129 0.297082 0.280129 0.313583C0.280129 0.313583 0.280129 0.313583 0.280129 0.313583L0.280129 0.313583Z"/>
		<path fill="none" stroke="black" stroke-width="0.0039924243" stroke-miterlimit="4" transform="matrix(0 166.983 -166.983 0 1152.72 531.432)" d="M0.280129 0.313583C0.280129 0.330085 0.265341 0.343462 0.247098 0.343462C0.228855 0.343462 0.214067 0.330085 0.214067 0.313583C0.214067 0.297082 0.228855 0.283704 0.247098 0.283704C0.265341 0.283704 0.280129 0.297082 0.280129 0.313583C0.280129 0.313583 0.280129 0.313583 0.280129 0.313583L0.280129 0.313583Z"/>
		<path fill="white" transform="matrix(0 166.983 -166.983 0 1152.72 531.432)" d="M0.0598877 0.204026C0.0560651 0.204026 0.0522425 0.203632 0.0484198 0.202942"/>
		<path fill="none" stroke="black" stroke-width="0.0039924243" stroke-miterlimit="4" transform="matrix(0 166.983 -166.983 0 1152.72 531.432)" d="M0.0598877 0.204026C0.0560651 0.204026 0.0522425 0.203632 0.0484198 0.202942"/>
		<path fill="white" transform="matrix(-166.983 0 0 -166.983 973.22 399.94)" d="M0.0102996 0.00145645C0.2301 0.00145645 0.4499 0.00145645 0.6697 0.00145645C0.674736 0.00145645 0.678627 0.0058258 0.678627 0.0111661C0.678627 0.173803 0.678627 0.33644 0.678627 0.499077C0.678627 0.504417 0.674507 0.508786 0.6697 0.508786C0.4499 0.508786 0.2301 0.508786 0.0102996 0.508786C0.00526422 0.508786 0.00137327 0.504417 0.00137327 0.499077C0.00137327 0.336359 0.00137327 0.173641 0.00137327 0.0109234C0.0011444 0.00558306 0.00526422 0.00145645 0.0102996 0.00145645C0.0102996 0.00145645 0.0102996 0.00145645 0.0102996 0.00145645L0.0102996 0.00145645Z"/>
		<path fill="none" stroke="black" stroke-width="0.0039924243" stroke-miterlimit="4" transform="matrix(-166.983 0 0 -166.983 973.22 399.94)" d="M0.0102996 0.00145645C0.2301 0.00145645 0.4499 0.00145645 0.6697 0.00145645C0.674736 0.00145645 0.678627 0.0058258 0.678627 0.0111661C0.678627 0.173803 0.678627 0.33644 0.678627 0.499077C0.678627 0.504417 0.674507 0.508786 0.6697 0.508786C0.4499 0.508786 0.2301 0.508786 0.0102996 0.508786C0.00526422 0.508786 0.00137327 0.504417 0.00137327 0.499077C0.00137327 0.336359 0.00137327 0.173641 0.00137327 0.0109234C0.0011444 0.00558306 0.00526422 0.00145645 0.0102996 0.00145645C0.0102996 0.00145645 0.0102996 0.00145645 0.0102996 0.00145645L0.0102996 0.00145645Z"/>
		<path fill="white" transform="matrix(-166.983 0 0 -166.983 973.22 399.94)" d="M0.0597375 0.482327C0.245282 0.482327 0.430827 0.482327 0.616372 0.482327C0.631935 0.482327 0.644524 0.469219 0.644524 0.453198C0.644524 0.320742 0.644524 0.188287 0.644524 0.0558306C0.644524 0.0398096 0.631935 0.0267016 0.616372 0.0267016C0.430827 0.0267016 0.245282 0.0267016 0.0597375 0.0267016C0.0441737 0.0267016 0.0315853 0.0398096 0.0315853 0.0558306C0.0315853 0.188287 0.0315853 0.320742 0.0315853 0.453198C0.0315853 0.469219 0.0441737 0.482327 0.0597375 0.482327C0.0597375 0.482327 0.0597375 0.482327 0.0597375 0.482327L0.0597375 0.482327Z"/>
		<path fill="none" stroke="black" stroke-width="0.0039924243" stroke-miterlimit="4" transform="matrix(-166.983 0 0 -166.983 973.22 399.94)" d="M0.0597375 0.482327C0.245282 0.482327 0.430827 0.482327 0.616372 0.482327C0.631935 0.482327 0.644524 0.469219 0.644524 0.453198C0.644524 0.320742 0.644524 0.188287 0.644524 0.0558306C0.644524 0.0398096 0.631935 0.0267016 0.616372 0.0267016C0.430827 0.0267016 0.245282 0.0267016 0.0597375 0.0267016C0.0441737 0.0267016 0.0315853 0.0398096 0.0315853 0.0558306C0.0315853 0.188287 0.0315853 0.320742 0.0315853 0.453198C0.0315853 0.469219 0.0441737 0.482327 0.0597375 0.482327C0.0597375 0.482327 0.0597375 0.482327 0.0597375 0.482327L0.0597375 0.482327Z"/>
		<path fill="white" transform="matrix(-166.983 0 0 -166.983 973.22 399.94)" d="M0.146483 0.45514C0.225675 0.468006 0.448603 0.466307 0.517725 0.45514C0.586617 0.443974 0.609047 0.4197 0.616372 0.362413C0.623696 0.305126 0.62484 0.208758 0.619576 0.159238C0.614312 0.109719 0.585473 0.0621418 0.548395 0.0553451C0.511316 0.0485483 0.2124 0.0456354 0.15106 0.0524322C0.0936116 0.0589862 0.0647728 0.0886007 0.0583642 0.132537C0.0519556 0.176473 0.0517267 0.322118 0.0576775 0.37455C0.0636284 0.426497 0.0913228 0.446159 0.146483 0.45514C0.146483 0.45514 0.146483 0.45514 0.146483 0.45514L0.146483 0.45514Z"/>
		<path fill="none" stroke="black" stroke-width="0.0039924243" stroke-miterlimit="4" transform="matrix(-166.983 0 0 -166.983 973.22 399.94)" d="M0.146483 0.45514C0.225675 0.468006 0.448603 0.466307 0.517725 0.45514C0.586617 0.443974 0.609047 0.4197 0.616372 0.362413C0.623696 0.305126 0.62484 0.208758 0.619576 0.159238C0.614312 0.109719 0.585473 0.0621418 0.548395 0.0553451C0.511316 0.0485483 0.2124 0.0456354 0.15106 0.0524322C0.0936116 0.0589862 0.0647728 0.0886007 0.0583642 0.132537C0.0519556 0.176473 0.0517267 0.322118 0.0576775 0.37455C0.0636284 0.426497 0.0913228 0.446159 0.146483 0.45514C0.146483 0.45514 0.146483 0.45514 0.146483 0.45514L0.146483 0.45514Z"/>
		<path fill="gray" transform="matrix(-166.983 0 0 -166.983 973.22 399.94)" d="M0.342174 0.217982C0.315853 0.217982 0.294339 0.241771 0.294339 0.2709C0.294339 0.300029 0.315853 0.323817 0.342174 0.323817C0.368495 0.323817 0.39001 0.300029 0.39001 0.2709C0.39001 0.241771 0.368495 0.217982 0.342174 0.217982C0.342174 0.217982 0.342174 0.217982 0.342174 0.217982L0.342174 0.217982Z"/>
		<path fill="none" stroke="black" stroke-width="0.0039924243" stroke-miterlimit="4" transform="matrix(-166.983 0 0 -166.983 973.22 399.94)" d="M0.342174 0.217982C0.315853 0.217982 0.294339 0.241771 0.294339 0.2709C0.294339 0.300029 0.315853 0.323817 0.342174 0.323817C0.368495 0.323817 0.39001 0.300029 0.39001 0.2709C0.39001 0.241771 0.368495 0.217982 0.342174 0.217982C0.342174 0.217982 0.342174 0.217982 0.342174 0.217982L0.342174 0.217982Z"/>
		<path fill="gray" transform="matrix(-166.983 0 0 -166.983 973.22 399.94)" d="M0.342174 0.460238C0.329586 0.460238 0.319286 0.471161 0.319286 0.484512C0.319286 0.497863 0.329586 0.508786 0.342174 0.508786C0.354763 0.508786 0.365062 0.497863 0.365062 0.484512C0.365062 0.471161 0.354763 0.460238 0.342174 0.460238C0.342174 0.460238 0.342174 0.460238 0.342174 0.460238L0.342174 0.460238Z"/>
		<path fill="none" stroke="black" stroke-width="0.0039924243" stroke-miterlimit="4" transform="matrix(-166.983 0 0 -166.983 973.22 399.94)" d="M0.342174 0.460238C0.329586 0.460238 0.319286 0.471161 0.319286 0.484512C0.319286 0.497863 0.329586 0.508786 0.342174 0.508786C0.354763 0.508786 0.365062 0.497863 0.365062 0.484512C0.365062 0.471161 0.354763 0.460238 0.342174 0.460238C0.342174 0.460238 0.342174 0.460238 0.342174 0.460238L0.342174 0.460238Z"/>
		<path fill="gray" transform="matrix(-166.983 0 0 -166.983 973.22 399.94)" d="M0.349956 0.477473C0.349956 0.462908 0.350414 0.364112 0.350414 0.358772C0.350414 0.343237 0.333477 0.342751 0.333706 0.363384C0.333706 0.363384 0.333248 0.468977 0.333248 0.47723C0.333706 0.493494 0.349956 0.493736 0.349956 0.477473C0.349956 0.477473 0.349956 0.477473 0.349956 0.477473L0.349956 0.477473Z"/>
		<path fill="none" stroke="black" stroke-width="0.0039924243" stroke-miterlimit="4" transform="matrix(-166.983 0 0 -166.983 973.22 399.94)" d="M0.349956 0.477473C0.349956 0.462908 0.350414 0.364112 0.350414 0.358772C0.350414 0.343237 0.333477 0.342751 0.333706 0.363384C0.333706 0.363384 0.333248 0.468977 0.333248 0.47723C0.333706 0.493494 0.349956 0.493736 0.349956 0.477473C0.349956 0.477473 0.349956 0.477473 0.349956 0.477473L0.349956 0.477473Z"/>
		<path fill="white" transform="matrix(-166.983 0 0 -166.983 1152.72 465.063)" d="M0.00494505 0.00494505C0.12033 0.00494505 0.235714 0.00494505 0.351099 0.00494505C0.648396 0.0124615 0.887538 0.251604 0.895055 0.548901C0.895055 0.664286 0.895055 0.77967 0.895055 0.895055C0.598352 0.895055 0.301648 0.895055 0.00494505 0.895055C0.00494505 0.598352 0.00494505 0.301648 0.00494505 0.00494505C0.00494505 0.00494505 0.00494505 0.00494505 0.00494505 0.00494505L0.00494505 0.00494505Z"/>
		<path fill="none" stroke="black" stroke-width="0.0039924243" stroke-miterlimit="4" transform="matrix(-166.983 0 0 -166.983 1152.72 465.063)" d="M0.00494505 0.00494505C0.12033 0.00494505 0.235714 0.00494505 0.351099 0.00494505C0.648396 0.0124615 0.887538 0.251604 0.895055 0.548901C0.895055 0.664286 0.895055 0.77967 0.895055 0.895055C0.598352 0.895055 0.301648 0.895055 0.00494505 0.895055C0.00494505 0.598352 0.00494505 0.301648 0.00494505 0.00494505C0.00494505 0.00494505 0.00494505 0.00494505 0.00494505 0.00494505L0.00494505 0.00494505Z"/>
		<path fill="white" transform="matrix(-166.983 0 0 -166.983 1152.72 465.063)" d="M0.845604 0.549495C0.845604 0.631714 0.845604 0.713934 0.845604 0.796154C0.845604 0.823451 0.823451 0.845604 0.796154 0.845604C0.565385 0.845604 0.334615 0.845604 0.103846 0.845604C0.0765494 0.845604 0.0543956 0.823451 0.0543956 0.796154C0.0543956 0.565385 0.0543956 0.334615 0.0543956 0.103846C0.0543956 0.0765494 0.0765494 0.0543956 0.103846 0.0543956C0.186066 0.0543956 0.268286 0.0543956 0.350505 0.0543956C0.620901 0.0615165 0.838483 0.279099 0.845604 0.549495C0.845604 0.549495 0.845604 0.549495 0.845604 0.549495L0.845604 0.549495Z"/>
		<path fill="none" stroke="black" stroke-width="0.0039924243" stroke-miterlimit="4" transform="matrix(-166.983 0 0 -166.983 1152.72 465.063)" d="M0.845604 0.549495C0.845604 0.631714 0.845604 0.713934 0.845604 0.796154C0.845604 0.823451 0.823451 0.845604 0.796154 0.845604C0.565385 0.845604 0.334615 0.845604 0.103846 0.845604C0.0765494 0.845604 0.0543956 0.823451 0.0543956 0.796154C0.0543956 0.565385 0.0543956 0.334615 0.0543956 0.103846C0.0543956 0.0765494 0.0765494 0.0543956 0.103846 0.0543956C0.186066 0.0543956 0.268286 0.0543956 0.350505 0.0543956C0.620901 0.0615165 0.838483 0.279099 0.845604 0.549495C0.845604 0.549495 0.845604 0.549495 0.845604 0.549495L0.845604 0.549495Z"/>
		<path fill="white" transform="matrix(-166.983 0 0 -166.983 1152.72 465.063)" d="M0.210165 0.726923C0.210165 0.747406 0.19356 0.764011 0.173077 0.764011C0.152594 0.764011 0.135989 0.747406 0.135989 0.726923C0.135989 0.70644 0.152594 0.689835 0.173077 0.689835C0.19356 0.689835 0.210165 0.70644 0.210165 0.726923C0.210165 0.726923 0.210165 0.726923 0.210165 0.726923L0.210165 0.726923Z"/>
		<path fill="none" stroke="black" stroke-width="0.0039924243" stroke-miterlimit="4" transform="matrix(-166.983 0 0 -166.983 1152.72 465.063)" d="M0.210165 0.726923C0.210165 0.747406 0.19356 0.764011 0.173077 0.764011C0.152594 0.764011 0.135989 0.747406 0.135989 0.726923C0.135989 0.70644 0.152594 0.689835 0.173077 0.689835C0.19356 0.689835 0.210165 0.70644 0.210165 0.726923C0.210165 0.726923 0.210165 0.726923 0.210165 0.726923L0.210165 0.726923Z"/>
	</g>
</svg>
